<svg width="54" height="78" viewBox="0 0 54 78" fill="none" xmlns="http://www.w3.org/2000/svg">
<path d="M7.71429 0.428711H46.2857C48.3317 0.428711 50.2938 1.24146 51.7405 2.68817C53.1872 4.13488 54 6.09704 54 8.143V69.8573C54 71.9032 53.1872 73.8654 51.7405 75.3121C50.2938 76.7588 48.3317 77.5716 46.2857 77.5716H7.71429C5.66833 77.5716 3.70617 76.7588 2.25946 75.3121C0.812752 73.8654 0 71.9032 0 69.8573V8.143C0 6.09704 0.812752 4.13488 2.25946 2.68817C3.70617 1.24146 5.66833 0.428711 7.71429 0.428711ZM7.71429 8.143V23.5716H46.2857V8.143H7.71429ZM7.71429 31.2859V39.0001H15.4286V31.2859H7.71429ZM23.1429 31.2859V39.0001H30.8571V31.2859H23.1429ZM38.5714 31.2859V39.0001H46.2857V31.2859H38.5714ZM7.71429 46.7144V54.4287H15.4286V46.7144H7.71429ZM23.1429 46.7144V54.4287H30.8571V46.7144H23.1429ZM38.5714 46.7144V54.4287H46.2857V46.7144H38.5714ZM7.71429 62.143V69.8573H15.4286V62.143H7.71429ZM23.1429 62.143V69.8573H30.8571V62.143H23.1429ZM38.5714 62.143V69.8573H46.2857V62.143H38.5714Z" fill="#E9C500"/>
</svg>
