<svg width="60" height="61" viewBox="0 0 60 61" fill="none" xmlns="http://www.w3.org/2000/svg">
<path d="M53.3333 0.5H6.66667C3 0.5 0 3.5 0 7.16667V53.8333C0 57.5 3 60.5 6.66667 60.5H53.3333C57 60.5 60 57.5 60 53.8333V7.16667C60 3.5 57 0.5 53.3333 0.5ZM13.3333 13.8333H20V20.5H13.3333V13.8333ZM13.3333 27.1667H20V33.8333H13.3333V27.1667ZM13.3333 40.5H20V47.1667H13.3333V40.5ZM46.6667 47.1667H26.6667V40.5H46.6667V47.1667ZM46.6667 33.8333H26.6667V27.1667H46.6667V33.8333ZM46.6667 20.5H26.6667V13.8333H46.6667V20.5Z" fill="#E9C500"/>
</svg>
