<svg width="82" height="121" viewBox="0 0 82 121" fill="none" xmlns="http://www.w3.org/2000/svg">
<path opacity="0.98" fill-rule="evenodd" clip-rule="evenodd" d="M1.08009 39.6954L1.26497 40.4877C1.5555 39.0615 1.63474 38.0314 1.63474 37.3183C1.63474 36.5787 1.44985 35.76 1.23856 35.4694C0.86879 34.994 0.842378 35.1261 0.86879 36.9221C0.895202 38.005 0.974438 39.2463 1.08009 39.6954ZM1.23856 32.3C1.58191 33.0395 1.58191 32.9867 1.60832 30.9794C1.60832 29.8173 1.5555 28.4174 1.44985 27.8628C1.31779 27.0968 1.23856 26.9648 1.08008 27.3346C0.974437 27.5987 0.868789 28.6552 0.86879 29.6588C0.86879 30.6889 1.02726 31.851 1.23856 32.3ZM1.71397 46.7209C2.03092 47.6718 2.77045 49.1772 3.35151 50.0224C3.93258 50.8676 5.17394 52.3467 6.12477 53.2975C7.0756 54.2483 8.73955 55.6482 9.82245 56.3613C10.9053 57.1008 12.8598 58.263 14.1804 58.8968C15.501 59.5571 17.746 60.5344 19.1987 61.089C20.6513 61.6437 23.1605 62.4096 24.7452 62.8058C26.3299 63.202 29.0768 63.7566 30.82 64.0208C33.3291 64.4169 35.5213 64.5226 41.2527 64.4962C47.5651 64.4962 48.965 64.4169 51.9495 63.9151C53.8512 63.5982 56.5188 63.0171 57.8922 62.6473C59.2656 62.2776 61.5371 61.538 62.9105 61.0362C64.2839 60.508 66.5025 59.5571 67.7967 58.8968C69.0909 58.263 71.0718 57.1008 72.1547 56.3877C73.2376 55.6482 74.8487 54.3276 75.7203 53.4296C76.5919 52.558 77.6748 51.3166 78.1238 50.6563C78.5728 49.996 79.2859 48.8075 79.6821 48.0151C80.0783 47.2228 80.5801 45.7173 80.765 44.7136C80.9763 43.71 81.1083 42.8384 81.0819 42.812C81.0291 42.7591 80.7386 43.4194 80.4216 44.2646C80.1047 45.0834 79.2595 46.6681 78.5464 47.751C77.8332 48.8339 76.4862 50.445 75.5618 51.2902C74.6374 52.1618 72.9734 53.456 71.8905 54.1691C70.8077 54.9086 68.906 56.0179 67.6646 56.6254C66.4233 57.2329 64.4688 58.1309 63.3067 58.5799C62.1445 59.0553 59.6618 59.8213 57.7602 60.2967C55.8585 60.7985 52.9532 61.406 51.2892 61.6701C48.8593 62.0399 46.72 62.1455 40.5924 62.1455C33.7253 62.1455 32.5896 62.0663 29.4994 61.5116C27.5977 61.1947 24.6924 60.508 23.0284 60.0326C21.3645 59.5307 18.5648 58.5535 16.8216 57.814C15.0784 57.0744 12.5957 55.8066 11.2751 55.0407C9.9545 54.2483 8.15849 52.9806 7.26048 52.1882C6.36248 51.4223 4.98906 50.0224 4.24952 49.0716C3.48357 48.1208 2.47992 46.5096 1.97809 45.506C1.37062 44.2118 1.1065 43.8684 1.1065 44.3174C1.1065 44.6872 1.39703 45.7701 1.71397 46.7209ZM1.71397 23.0558C2.03092 23.9274 2.84969 25.4065 3.50999 26.3573C4.1967 27.3081 5.49088 28.7872 6.4153 29.6324C7.33972 30.504 8.81879 31.6661 9.69038 32.2472C10.562 32.8018 12.0939 33.647 13.1239 34.1488C14.154 34.6243 16.1085 35.443 17.4819 35.9449C18.8553 36.4731 21.0475 37.1862 22.3681 37.5824C23.6887 37.9522 26.1186 38.5596 27.7826 38.903C29.4465 39.2463 32.0085 39.6689 33.4611 39.8538C34.9138 40.0387 38.2945 40.1972 40.9886 40.1972C44.0788 40.1708 47.0897 40.0123 49.1763 39.7218C50.9987 39.4841 53.8512 38.9822 55.5151 38.6125C57.1791 38.2427 60.2693 37.3711 62.3822 36.6844C64.4952 35.9713 67.11 34.994 68.1929 34.4922C69.2758 33.9904 71.0718 33.0131 72.1547 32.3C73.2376 31.6133 74.7166 30.4776 75.4297 29.8173C76.1429 29.157 77.2258 27.942 77.8332 27.1497C78.4671 26.3573 79.3651 24.8518 79.867 23.8482C80.6593 22.1578 80.7386 21.788 80.7386 19.4902C80.7386 17.2452 80.6593 16.8226 79.9462 15.3963C79.5236 14.5247 78.3879 12.9664 77.4106 11.9628C76.4598 10.9327 74.7166 9.45365 73.5809 8.66129C72.4188 7.86893 70.3058 6.68039 68.8532 5.99368C67.4005 5.30697 64.7329 4.27691 62.9105 3.69585C61.0881 3.11478 58.3676 2.37525 56.8357 2.0583C55.3038 1.74136 52.7683 1.31877 51.1572 1.10747C49.546 0.896176 45.6371 0.658466 42.4412 0.552819C38.6379 0.447171 35.5213 0.499997 33.4611 0.711293C31.718 0.896176 28.5749 1.37159 26.462 1.79418C24.349 2.21678 21.206 2.98272 19.4628 3.51096C17.7196 4.0392 14.7615 5.22774 12.8598 6.15216C10.8525 7.1294 8.44902 8.58206 7.04919 9.63854C5.72859 10.6422 4.14387 12.1741 3.45716 13.0193C2.79686 13.8909 2.0045 15.2907 1.68756 16.1095C1.26497 17.1924 1.1065 18.196 1.13291 19.543C1.13291 20.8372 1.31779 21.9729 1.71397 23.0558ZM10.1658 21.0749C9.9545 20.4939 9.84886 19.4902 9.92809 18.4337C10.0073 17.3508 10.2979 16.2151 10.7205 15.3963C11.0902 14.604 12.1731 13.2834 13.4409 12.0949C14.9728 10.6422 16.2141 9.74419 18.1422 8.74053C19.5949 8.001 22.0248 6.97093 23.5567 6.44269C25.0886 5.94086 27.2807 5.33339 28.4429 5.09568C29.605 4.85797 31.9293 4.4882 33.5932 4.27691C35.2572 4.06561 38.5058 3.90714 40.7773 3.90714C43.0751 3.90714 46.1125 4.0392 47.5123 4.17126C48.9386 4.32973 51.342 4.6995 52.8739 4.99003C54.4058 5.30698 56.8886 5.96728 58.4204 6.4691C59.9523 6.97093 62.3822 7.97458 63.8085 8.74053C65.6309 9.69136 67.0307 10.6686 68.4042 11.9628C69.804 13.2834 70.5964 14.287 71.1774 15.5284C71.8641 16.9018 72.0226 17.5621 72.0226 18.962C72.0226 20.2561 71.8377 21.0485 71.3359 22.1314C70.9661 22.9238 70.0681 24.2179 69.355 25.0103C68.6419 25.8027 67.3477 26.9384 66.4761 27.5458C65.6045 28.1797 64.1783 29.0249 63.3067 29.4739C62.4351 29.8965 60.5862 30.636 59.2128 31.085C57.8394 31.534 55.4095 32.1943 53.7984 32.5377C52.1872 32.9075 49.9422 33.3301 48.7801 33.5414C47.4859 33.7262 44.3429 33.8583 40.7244 33.8583C36.2608 33.8583 34.1214 33.7527 32.1405 33.4093C30.6879 33.1452 28.3636 32.6434 26.9902 32.3C25.6168 31.9566 23.4246 31.2963 22.104 30.8473C20.7834 30.3719 18.8025 29.5003 17.6404 28.9193C16.4783 28.2854 14.7615 27.0704 13.705 26.0932C12.7013 25.1424 11.5656 23.8482 11.1959 23.1879C10.7997 22.5276 10.3507 21.5767 10.1658 21.0749ZM2.47992 43.5251C2.61198 44.0269 2.95533 44.74 3.19304 45.1098C3.61563 45.7437 3.61563 45.7173 3.77411 43.9213C3.87975 42.8912 4.03822 41.3593 4.14387 40.4877C4.32876 38.9558 4.30234 38.8766 3.50999 38.1106C3.06098 37.6616 2.63839 37.3711 2.58557 37.4503C2.53274 37.5296 2.4271 38.7181 2.34786 40.0915C2.24221 41.5706 2.29504 42.9704 2.47992 43.5251ZM2.6648 33.8847C2.77045 34.3073 3.06098 34.994 3.29869 35.3902C3.5364 35.8128 3.77411 36.1297 3.80052 36.1297C3.85334 36.1297 3.85334 35.1525 3.82693 33.9375C3.82693 32.749 3.77411 31.3756 3.77411 30.9002C3.74769 30.4248 3.48357 29.7645 3.14022 29.3683L2.55915 28.708C2.50633 32.1151 2.55915 33.4357 2.6648 33.8847ZM5.06829 46.6945C5.35882 47.4869 5.80783 48.3849 6.12477 48.6754L6.65301 49.1772C6.65301 46.3512 6.83789 45.3739 7.20766 44.5816C7.49819 43.9213 7.70949 43.1025 7.70949 42.7591C7.70949 42.3894 7.26048 41.7027 6.65301 41.0424C6.07195 40.4613 5.51729 40.0123 5.46447 40.0915C5.38523 40.1708 5.14753 40.9367 4.93623 41.8083C4.72494 42.6799 4.54005 43.8156 4.54005 44.3174C4.56646 44.8193 4.77776 45.9022 5.06829 46.6945ZM5.06829 35.7336C5.14753 36.6052 5.35882 37.556 5.51729 37.8465C5.67577 38.137 6.09836 38.586 6.49454 38.8238C6.8643 39.0879 7.23407 39.2992 7.31331 39.2992C7.39254 39.2992 7.36613 39.1407 7.26048 38.9558C7.18125 38.7973 7.02278 37.3183 6.94354 35.6807C6.78507 32.8547 6.75866 32.6962 5.99271 31.9302C5.57012 31.4548 5.12112 31.1115 4.98906 31.1115C4.88341 31.1115 4.83058 31.7982 4.83058 32.6169C4.857 33.4621 4.96264 34.862 5.06829 35.7336ZM7.81514 50.3922C8.02643 50.762 8.66032 51.3166 9.26779 51.6336C9.87527 51.9769 10.4035 52.2146 10.4563 52.1618C10.5092 52.1354 10.694 51.1846 10.8525 50.0488C11.011 48.8867 11.4336 47.4869 11.8033 46.7473C12.3316 45.7173 12.4108 45.4267 12.1203 45.0042C11.9618 44.74 11.1695 44.1854 10.4035 43.7628C9.66397 43.3402 8.89803 43.0497 8.76597 43.1289C8.63391 43.2081 8.31696 43.8949 8.10567 44.6344C7.89437 45.4003 7.65666 46.853 7.57743 47.8831C7.47178 49.2301 7.55102 49.9168 7.81514 50.3922ZM8.3962 39.2992C8.60749 39.9595 9.03009 40.7782 9.37344 41.0952C9.69038 41.4385 10.2714 41.8875 10.6676 42.0988C11.0902 42.3101 11.4072 42.3894 11.4072 42.2573C11.4072 42.1517 11.3015 41.6498 11.143 41.148C11.011 40.6462 10.8525 39.1935 10.8261 37.9257C10.7469 35.9184 10.6676 35.5751 10.0866 34.9412C9.7168 34.545 9.10932 34.0696 8.68673 33.8583L7.97361 33.4885C8.00002 37.0806 8.1849 38.6389 8.3962 39.2992ZM12.7806 53.6409C13.5465 54.3804 14.2332 54.8294 14.6822 54.8558C15.2897 54.8822 15.369 54.7766 15.369 54.0106C15.369 53.5616 15.501 52.4523 15.6595 51.5807C15.818 50.7091 16.2141 49.4942 16.5839 48.8603C17.0065 48.1472 17.1386 47.6453 16.9801 47.4076C16.848 47.2492 16.0557 46.8002 15.1841 46.4568C14.1012 46.0078 13.5465 45.9022 13.256 46.087C13.0447 46.2455 12.6485 46.9322 12.3844 47.6454C12.1203 48.3585 11.8298 49.7319 11.7505 50.7091L11.592 52.4787L12.7806 53.6409ZM11.9354 39.8274C12.0146 40.7782 12.3316 41.9932 12.6221 42.5743C12.8862 43.1289 13.4145 43.7892 13.7842 44.0533C14.154 44.291 14.8671 44.6344 15.369 44.8193L16.2934 45.1362C15.95 43.7892 15.7387 42.6271 15.6067 41.6762C15.501 40.7254 15.369 39.4312 15.369 38.7709C15.369 37.6088 15.3161 37.556 14.0484 36.8429C13.3088 36.4467 12.4901 36.1297 12.1995 36.1297C11.7505 36.1297 11.6713 36.2882 11.6977 37.107C11.7241 37.6616 11.8298 38.8766 11.9354 39.8274ZM16.848 55.8595C17.1121 55.9915 18.0366 56.3877 18.8553 56.7575C19.7005 57.1008 20.4401 57.3385 20.4665 57.2593C20.5193 57.1801 20.6778 56.0444 20.8098 54.7502C20.9947 53.1919 21.3116 51.8713 21.7606 50.9204L22.4474 49.4678C18.9346 48.0679 18.7497 48.0415 18.1422 48.4113C17.746 48.649 17.3234 49.2829 17.0593 50.0488C16.8216 50.7355 16.5839 52.2674 16.5047 53.456C16.3726 55.3576 16.399 55.6218 16.848 55.8595ZM16.8216 43.393C17.0329 43.9741 17.5611 44.7929 17.9837 45.2419C18.4063 45.6645 19.3572 46.3248 20.0967 46.6945C20.8362 47.0643 21.4965 47.302 21.5494 47.2228C21.6286 47.1435 21.4965 46.4832 21.2852 45.7701C21.0739 45.0306 20.8098 43.3402 20.7042 41.9668C20.5457 39.8274 20.4401 39.4576 19.991 39.2728C19.7005 39.1671 18.8289 38.8238 18.063 38.5332C16.8744 38.0578 16.6631 38.0314 16.5575 38.3748C16.4783 38.586 16.4254 39.5633 16.4254 40.5405C16.4518 41.5178 16.6103 42.812 16.8216 43.393ZM22.2361 57.5234C22.5266 57.814 23.3982 58.2365 24.1377 58.4478C24.9037 58.6856 25.8281 58.844 26.1979 58.7912C26.8317 58.712 26.8582 58.6063 27.0166 56.599C27.1223 55.4369 27.36 54.0106 27.5713 53.4296C27.7826 52.8485 28.1788 52.0297 28.4693 51.6336C28.7334 51.2374 28.9183 50.8676 28.8391 50.8148C28.7598 50.762 27.809 50.5243 26.7261 50.2865C25.6432 50.0488 24.5075 49.864 24.217 49.8375C23.9264 49.8375 23.451 50.1017 23.1605 50.4186C22.87 50.7355 22.4209 51.8977 22.1568 53.007C21.9191 54.1163 21.7078 55.4633 21.7078 55.9915C21.7078 56.6518 21.8927 57.1801 22.2361 57.5234ZM21.9455 43.9213C22.0512 44.6344 22.4209 45.8229 22.7907 46.5625C23.3982 47.8038 23.5038 47.9095 25.0093 48.3321C25.8809 48.5698 27.0166 48.7811 27.5185 48.7811L28.4429 48.7811C27.4656 45.8493 27.2543 44.608 27.2807 43.393C27.2807 41.9668 27.1751 41.4385 26.8317 41.148C26.5676 40.9367 25.4055 40.5405 24.2434 40.3028C23.0548 40.0651 22.0248 39.9066 21.8927 39.9859C21.7871 40.0387 21.7078 40.6462 21.7342 41.3329C21.7606 42.0196 21.8663 43.1817 21.9455 43.9213ZM28.2316 58.8704C28.2844 59.1081 28.707 59.4251 29.1824 59.5836C29.6578 59.742 30.9256 59.9005 32.0085 59.9533L33.9894 60.0326C34.2535 56.7575 34.4648 55.2784 34.6497 54.6181C34.8346 53.9578 35.2043 52.9806 35.4685 52.4259L35.9703 51.4487C32.3783 51.1581 31.1633 51.1053 30.952 51.1317C30.7407 51.1846 30.2389 51.5543 29.8163 51.9769C29.4201 52.4259 28.8655 53.5352 28.5749 54.5389C28.2844 55.5161 28.0467 56.8103 28.0731 57.3914C28.0995 57.9724 28.1523 58.6327 28.2316 58.8704ZM28.5749 44.1854C28.6806 45.189 28.9975 46.5625 29.2616 47.1963C29.5522 47.8302 30.054 48.6226 30.4238 48.9395C30.952 49.3885 31.5859 49.547 33.4611 49.7055C34.7553 49.8111 35.8646 49.864 35.891 49.8111C35.891 49.7583 35.6269 48.8867 35.2836 47.8831C34.8874 46.7209 34.6497 45.4003 34.6497 44.3967C34.6497 43.3138 34.5176 42.6271 34.2535 42.363C34.0422 42.1253 33.5404 41.8875 33.1178 41.8083C32.7216 41.7555 31.5859 41.597 30.5822 41.4914C29.0768 41.3065 28.7334 41.3593 28.5485 41.6762C28.4165 41.8875 28.3372 42.1252 28.3372 42.2045C28.3636 42.2837 28.4693 43.1553 28.5749 44.1854ZM35.6533 60.059C35.759 60.2439 36.7891 60.4023 38.2153 60.4287C39.5095 60.4552 40.698 60.4816 40.8565 60.4552C40.9886 60.4552 41.1999 59.3194 41.3055 57.9724C41.4111 56.4405 41.7281 54.8558 42.1507 53.6937C42.5204 52.6636 42.7846 51.8184 42.7582 51.7656C42.7317 51.7392 41.7017 51.6864 40.4603 51.66C39.1133 51.6336 37.9776 51.7392 37.6078 51.9241C37.2909 52.0826 36.8419 52.5051 36.6306 52.8221C36.4193 53.1654 36.0495 54.354 35.8382 55.4633C35.6269 56.599 35.442 58.0253 35.442 58.6327C35.442 59.2666 35.5213 59.9005 35.6533 60.059ZM35.9703 45.3739C36.0759 46.1663 36.3929 47.3548 36.657 47.9887C36.9211 48.6226 37.4494 49.3885 37.8191 49.6527C38.2945 49.996 38.9284 50.1281 40.0641 50.1281C40.9357 50.1281 41.9922 50.0488 42.4412 49.9696L43.2336 49.8111C42.2563 47.302 41.8866 45.6909 41.8073 44.608C41.6753 43.1289 41.5432 42.6271 41.1734 42.4422C40.9357 42.3101 39.6151 42.2309 38.2681 42.2573L35.8382 42.3365C35.7854 43.5515 35.8382 44.5816 35.9703 45.3739ZM42.7582 60.1382C42.8638 60.4552 43.3392 60.508 44.8975 60.4816C46.0597 60.4552 47.1161 60.2967 47.3538 60.1118C47.6972 59.8477 47.8293 59.1346 47.9349 56.9952C48.0406 55.1463 48.2518 53.7201 48.6216 52.69L49.1763 51.1846C47.0369 51.3958 46.0068 51.5279 45.5314 51.5807C45.0032 51.66 44.4749 51.9769 44.1316 52.4259C43.841 52.8221 43.4449 53.7465 43.2336 54.486C43.0487 55.1992 42.8374 56.7047 42.7582 57.7875C42.7053 58.8704 42.7053 59.9269 42.7582 60.1382ZM43.1279 45.1098C43.26 46.0606 43.4713 47.1699 43.6033 47.6189C43.7618 48.0415 44.1844 48.7018 44.5542 49.0716C45.1616 49.6527 45.4786 49.7319 47.1954 49.7319C48.2518 49.7319 49.2027 49.6791 49.2819 49.5998C49.3876 49.5206 49.2027 48.7282 48.9121 47.8038C48.6216 46.9058 48.3047 45.2947 48.199 44.2382C48.1198 43.1817 47.9349 42.2837 47.8293 42.2045C47.7236 42.1252 46.5879 42.1252 45.2937 42.2045C43.2072 42.3101 42.9695 42.3894 42.9166 42.8648C42.9166 43.1553 42.9959 44.159 43.1279 45.1098ZM49.5989 59.7684C49.863 59.8741 50.6817 59.9005 51.4213 59.7949C52.1344 59.6892 52.8739 59.4779 53.0588 59.293C53.2701 59.0817 53.4286 57.8668 53.4814 55.9387C53.5342 53.9578 53.7191 52.4787 54.0097 51.7128L54.4587 50.5243C52.2929 50.8148 51.3949 51.1317 51.0251 51.3958C50.6553 51.66 50.1535 52.2939 49.8894 52.7957C49.5989 53.4032 49.3876 54.6709 49.2555 56.6254C49.097 59.3458 49.1234 59.5836 49.5989 59.7684ZM49.5989 44.9777C49.6517 45.2683 49.8102 46.087 49.9686 46.8266C50.1007 47.5397 50.4704 48.3849 50.761 48.6754C51.2628 49.1244 51.5269 49.1772 52.9532 49.0188C53.8512 48.9131 54.6171 48.7547 54.6435 48.6754C54.6964 48.5962 54.5379 47.9623 54.3002 47.2756C54.0889 46.5889 53.7984 45.1362 53.6399 44.0533C53.4814 42.6799 53.2437 41.9668 52.9268 41.7291C52.6098 41.4914 52.108 41.4385 51.2892 41.5442C50.6289 41.6498 49.9422 41.8611 49.7573 42.0196C49.5724 42.2045 49.4404 42.812 49.4668 43.393C49.4668 43.9741 49.546 44.6872 49.5989 44.9777ZM54.8812 59.0553C55.0133 59.0817 55.8321 58.9233 56.7037 58.712C57.5753 58.5007 58.394 58.1837 58.5525 58.0253C58.6846 57.8932 58.843 56.5462 58.843 55.0671C58.8695 53.588 59.0279 51.8449 59.2128 51.1846C59.3977 50.5243 59.609 49.8375 59.7146 49.6262C59.8467 49.3093 59.6882 49.2829 58.9487 49.4414C58.4469 49.547 57.5224 49.864 56.8886 50.1545C56.0698 50.5243 55.6472 50.9204 55.3303 51.6336C55.0397 52.2939 54.8548 53.6937 54.7756 55.8331C54.6964 57.6027 54.7492 59.0553 54.8812 59.0553ZM54.9077 44.3174C54.9605 44.6872 55.1718 45.5852 55.3831 46.3512C55.6472 47.302 55.9641 47.8302 56.3603 48.0415C56.8357 48.2528 57.364 48.2264 58.6846 47.8566C59.6354 47.5925 60.4278 47.3812 60.4542 47.3812C60.507 47.3548 60.2957 46.853 60.0052 46.2191C59.7146 45.6116 59.3449 44.608 59.2128 43.9741C59.0807 43.3666 58.9487 42.4422 58.9751 41.9404C58.9751 41.4385 58.8166 40.8575 58.6317 40.6726C58.394 40.4349 57.8922 40.3821 56.9678 40.5141C56.2283 40.6198 55.4359 40.9367 55.1718 41.2008C54.8812 41.4914 54.7228 42.046 54.7492 42.6535C54.7756 43.2081 54.8284 43.9477 54.9077 44.3174ZM59.9259 56.6518L60.0052 57.7875C62.5671 56.9159 63.4651 56.5198 63.65 56.3613C63.8877 56.15 63.9934 55.3048 63.967 53.5616C63.967 52.1882 64.0726 50.445 64.2047 49.7319C64.3367 48.9924 64.5216 48.2 64.6008 47.9359C64.7593 47.5133 64.6801 47.5133 63.4915 47.9095C62.8048 48.1736 61.9597 48.5434 61.6163 48.7811C61.2465 49.0188 60.8239 49.547 60.6391 49.996C60.4542 50.4186 60.2165 51.6071 60.1372 52.6372C60.0316 53.6409 59.9523 54.7238 59.8995 55.0143C59.8731 55.3048 59.8731 56.0444 59.9259 56.6518ZM60.2693 43.6571C60.3749 44.2382 60.6655 45.1626 60.9032 45.6909C61.2465 46.5096 61.4578 46.6945 62.0389 46.6945C62.4615 46.6945 63.4123 46.3776 64.1518 46.0342L65.5517 45.3739C64.865 44.0269 64.4688 42.6535 64.2311 41.4121L63.7821 39.1671C62.1974 39.1935 61.3522 39.3784 60.9296 39.5897C60.2165 39.9331 60.1372 40.0915 60.0844 41.2801C60.058 41.9932 60.1372 43.0761 60.2693 43.6571ZM64.9178 55.0671C64.9706 55.4105 65.2083 55.6746 65.4196 55.6746C65.6309 55.6746 66.0799 55.5425 66.3969 55.3841C66.7402 55.1992 67.2949 54.803 67.6646 54.4596C68.2193 53.9314 68.2985 53.6409 68.2193 52.5844C68.1665 51.8713 68.2721 50.313 68.4306 49.0716C68.5891 47.8302 68.8003 46.536 68.9324 46.1927L69.1173 45.5588C67.4798 46.2455 66.7402 46.7209 66.4233 47.0379C66.1063 47.3548 65.6573 48.3321 65.446 49.2037C65.2347 50.0752 64.997 51.6071 64.9442 52.6372C64.865 53.6409 64.865 54.7502 64.9178 55.0671ZM65.4989 42.3365C65.7366 43.2346 66.1063 44.1854 66.3176 44.4495C66.6082 44.8457 66.8459 44.9249 67.3213 44.7664C67.6382 44.6608 68.4042 44.291 68.9852 43.9213C69.5663 43.5515 70.0417 43.2081 70.0417 43.1289C70.0417 43.0497 69.804 42.5214 69.5135 41.9404C69.2229 41.3593 68.8268 39.9859 68.6419 38.903C68.4834 37.8201 68.1929 36.9221 68.0608 36.9221C67.9023 36.9221 67.2949 37.1598 66.661 37.4503C66.0535 37.7409 65.4196 38.2163 65.2876 38.5068C65.1291 38.7973 65.0234 39.4048 65.0499 39.8802C65.0499 40.3556 65.2611 41.4649 65.4989 42.3365ZM69.4078 53.2183C69.4871 53.4824 69.7776 53.4296 70.57 53.0334C71.151 52.7429 71.7321 52.2674 71.8905 51.9769C72.0226 51.6864 72.1547 50.3394 72.1811 48.9924C72.1811 47.6453 72.2603 45.9286 72.366 45.1626C72.4716 44.3174 72.4452 43.7892 72.2867 43.7892C72.1283 43.7892 71.6 44.2382 71.0982 44.7929C70.57 45.3211 69.9361 46.3512 69.6984 47.0907C69.399 47.9711 69.2582 49.1596 69.2758 50.6563C69.2758 51.8977 69.3286 53.0334 69.4078 53.2183ZM69.9361 40.4877C70.1474 41.0688 70.3851 41.7555 70.4643 41.9932C70.5171 42.2573 70.7284 42.4686 70.8869 42.4686C71.0718 42.4686 71.7321 42.2045 72.3396 41.8611C73.0967 41.4738 73.4753 41.104 73.4753 40.7518C73.4753 40.4613 73.3168 39.6953 73.1055 39.035C72.8942 38.3747 72.5773 37.1598 72.4188 36.3146C72.2867 35.4958 72.0754 34.8091 71.9434 34.8091C71.8377 34.8091 71.2831 35.0733 70.702 35.4166C69.6455 35.9977 69.6455 36.0241 69.5927 37.7145C69.5399 38.7709 69.6719 39.8274 69.9361 40.4877ZM73.1319 50.5771C73.2904 50.8148 73.5809 50.7355 74.3205 50.2601C74.8751 49.8904 75.3769 49.3357 75.4297 48.9924C75.509 48.6754 75.6146 46.8002 75.6939 44.8457L75.8523 41.2801C74.9279 41.9404 74.3205 42.7591 73.9243 43.5515C73.2904 44.74 73.1583 45.4003 73.0527 47.6189C72.9734 49.0716 72.9999 50.3922 73.1319 50.5771ZM73.6866 37.8201C73.9507 38.9294 74.294 39.6953 74.5317 39.7746C74.743 39.8274 75.1656 39.7482 75.4562 39.5897C75.7467 39.4312 76.1957 38.903 76.4598 38.4276C76.856 37.7409 76.9088 37.4503 76.6711 36.9221C76.5126 36.5523 76.1957 35.4166 75.9844 34.413C75.7731 33.3829 75.5882 32.4585 75.5882 32.3528C75.5882 32.2472 75.1392 32.4849 74.5846 32.8811C74.0563 33.2772 73.5281 33.7262 73.4224 33.8847C73.2904 34.0168 73.2111 34.5714 73.2376 35.0733C73.2376 35.5751 73.4489 36.8164 73.6866 37.8201ZM77.1729 47.2756C77.6219 46.8002 78.0709 45.9814 78.2294 45.4267C78.3615 44.8985 78.4935 43.2081 78.4935 41.6762L78.4935 38.903C77.4635 40.3292 77.0409 41.1744 76.9352 41.6762C76.8032 42.1781 76.6183 43.842 76.5391 45.3739L76.407 48.1472L77.1729 47.2756ZM77.305 35.9713C77.5427 36.5259 77.8068 36.9749 77.9125 36.9485C77.9917 36.9485 78.3615 36.658 78.6784 36.3146C79.2595 35.7336 79.2859 35.6279 79.0218 33.7262C78.8633 32.6434 78.7048 31.2171 78.6784 30.5568L78.5992 29.3683C77.1465 31.2963 77.0145 31.7189 76.9616 33.198C76.9088 34.3073 77.0409 35.2845 77.305 35.9713ZM79.5236 43.393C79.6821 43.3138 80.0518 42.5478 80.3424 41.7291C80.6593 40.8839 80.9763 39.2199 81.0819 38.0314C81.1611 36.8164 81.1611 35.8392 81.0555 35.8392C80.9499 35.8392 80.5273 36.5259 80.1575 37.3711C79.6028 38.5596 79.4444 39.4048 79.3651 41.2272C79.2859 42.7591 79.3387 43.4987 79.5236 43.393ZM79.7877 33.5942L79.9726 34.6507C81.0555 32.3 81.1083 31.7718 81.0555 28.9193L80.9763 25.6706C79.6293 28.3646 79.5236 28.8929 79.5764 30.5568C79.5764 31.6661 79.6821 33.0131 79.7877 33.5942ZM14.2597 20.0184C14.3389 20.2297 14.603 20.6523 14.8143 20.9429C15.052 21.2334 15.5274 21.6824 15.8708 21.9201C16.2406 22.1842 16.9537 22.3691 17.4555 22.3691C17.9837 22.3691 19.6477 22.0786 21.1532 21.7088C22.6851 21.339 24.8773 20.7316 26.0394 20.3618C27.2015 19.9656 28.6013 19.4374 29.156 19.1733C29.7106 18.9091 30.2125 18.4073 30.3181 18.0904C30.4238 17.6414 30.2653 17.298 29.5786 16.6905C29.0768 16.2415 27.2015 15.2379 25.3791 14.4191C23.5831 13.6003 21.6814 12.8344 21.1532 12.7551C20.5985 12.6231 19.7533 12.7023 19.0402 12.9136C18.2743 13.1249 17.3234 13.7588 16.3198 14.7096C15.4482 15.5284 14.603 16.5056 14.3917 16.9018C14.2068 17.298 14.0484 18.064 14.0484 18.6186C14.0484 19.1468 14.154 19.7807 14.2597 20.0184ZM24.5339 27.4666C26.0922 27.9949 28.6806 28.6552 30.2653 28.9457C31.8764 29.2626 34.6761 29.606 36.4721 29.738C38.2945 29.8701 39.8793 29.9493 39.9849 29.8701C40.0905 29.8173 40.1698 29.4475 40.1698 29.0513C40.1698 28.6551 39.9585 27.8364 39.6944 27.2553C39.4303 26.6743 38.6907 25.7498 38.0304 25.1688L36.8683 24.1387C30.1332 24.3764 27.5185 24.5877 26.6997 24.7462C25.9073 24.9311 24.5075 25.2744 23.6095 25.565C22.6851 25.8555 21.8927 26.1724 21.8135 26.3045C21.7606 26.4365 22.9756 26.9648 24.5339 27.4666ZM29.0239 10.8007C29.8427 11.3289 31.1369 12.0684 31.85 12.4118C32.5896 12.7816 33.8837 13.2834 34.7553 13.5475C35.891 13.8645 36.9475 13.9701 38.453 13.8909C40.249 13.7852 40.8565 13.6267 42.2827 12.8608C43.2072 12.359 44.7391 11.1968 45.7163 10.2988C47.1161 8.95183 47.3803 8.55565 47.0897 8.31794C46.852 8.08023 45.1352 8.001 40.7508 8.001C36.3929 8.02741 34.0422 8.13305 32.1141 8.47641C30.6615 8.71412 29.0239 9.03106 28.4957 9.13671C27.941 9.26877 27.492 9.48007 27.492 9.61213C27.492 9.74419 28.1788 10.2724 29.0239 10.8007ZM36.6834 19.8071C36.9211 20.0448 37.6078 20.441 38.1889 20.6787C38.8228 20.9693 39.9321 21.1542 40.9621 21.1542C42.1771 21.1542 43.0487 20.9957 43.9467 20.5731C44.6598 20.2561 45.2937 19.7543 45.4258 19.411C45.5578 19.0676 45.5578 18.5658 45.4522 18.2752C45.3465 17.9847 44.8711 17.5357 44.3693 17.2452C43.8146 16.9018 42.811 16.6905 41.6224 16.6113C40.6188 16.5585 39.2982 16.6377 38.7171 16.7962C38.1361 16.9547 37.3437 17.3772 36.9475 17.747C36.5513 18.1168 36.208 18.645 36.208 18.9091C36.208 19.1733 36.4193 19.5958 36.6834 19.8071ZM47.1161 27.7043C47.301 28.391 47.5651 29.0777 47.6972 29.2362C47.9085 29.4739 48.965 29.3419 51.9231 28.7608C54.1153 28.3118 56.9678 27.5723 58.262 27.1233C59.5826 26.6478 61.1937 26.014 61.8276 25.6706C62.4879 25.3272 63.6236 24.6405 64.3367 24.1387L65.6573 23.1879C64.2311 22.9766 61.854 22.7125 59.4505 22.4748C57.0734 22.237 53.8512 22.105 52.3193 22.1578C50.6289 22.237 49.2555 22.4219 48.7801 22.6596C48.3575 22.8709 47.8028 23.3463 47.5123 23.6897C47.2482 24.0595 46.9841 24.8254 46.9048 25.4065C46.852 25.9875 46.9312 27.0176 47.1161 27.7043ZM50.1271 15.9774C50.2063 16.1623 50.5761 16.4792 50.9723 16.6641C51.342 16.8754 52.9268 17.2452 54.4322 17.4565C55.9641 17.6942 59.1072 18.064 61.4314 18.3017C63.7557 18.513 66.0535 18.6714 66.5289 18.6714C67.11 18.6714 67.4269 18.5394 67.559 18.2224C67.6382 17.9583 67.6118 17.4565 67.5062 17.0867C67.4005 16.7434 66.6082 15.7133 65.7102 14.8417C64.7857 13.9173 63.2802 12.8344 62.2238 12.3061C61.2201 11.7779 59.3449 10.9591 58.0771 10.5101C56.8093 10.0611 55.251 9.69136 54.6435 9.69136C53.7719 9.69136 53.3494 9.84983 52.7419 10.4045C52.3193 10.8271 51.5269 11.8571 50.9723 12.7287C50.3912 13.6003 49.9422 14.6304 49.9686 14.9738C49.9686 15.3435 50.0479 15.7925 50.1271 15.9774Z" fill="#E9C500"/>
<path opacity="0.98" fill-rule="evenodd" clip-rule="evenodd" d="M1.08009 67.6954L1.26497 68.4877C1.5555 67.0615 1.63474 66.0314 1.63474 65.3183C1.63474 64.5787 1.44985 63.76 1.23856 63.4694C0.86879 62.994 0.842378 63.1261 0.86879 64.9221C0.895202 66.005 0.974438 67.2463 1.08009 67.6954ZM1.23856 60.3C1.58191 61.0395 1.58191 60.9867 1.60832 58.9794C1.60832 57.8173 1.5555 56.4174 1.44985 55.8628C1.31779 55.0968 1.23856 54.9648 1.08008 55.3346C0.974437 55.5987 0.868789 56.6552 0.86879 57.6588C0.86879 58.6889 1.02726 59.851 1.23856 60.3ZM1.71397 74.7209C2.03092 75.6718 2.77045 77.1772 3.35151 78.0224C3.93258 78.8676 5.17394 80.3467 6.12477 81.2975C7.0756 82.2483 8.73955 83.6482 9.82245 84.3613C10.9053 85.1008 12.8598 86.263 14.1804 86.8968C15.501 87.5571 17.746 88.5344 19.1987 89.089C20.6513 89.6437 23.1605 90.4096 24.7452 90.8058C26.3299 91.202 29.0768 91.7566 30.82 92.0208C33.3291 92.4169 35.5213 92.5226 41.2527 92.4962C47.5651 92.4962 48.965 92.4169 51.9495 91.9151C53.8512 91.5982 56.5188 91.0171 57.8922 90.6473C59.2656 90.2776 61.5371 89.538 62.9105 89.0362C64.2839 88.508 66.5025 87.5571 67.7967 86.8968C69.0909 86.263 71.0718 85.1008 72.1547 84.3877C73.2376 83.6482 74.8487 82.3276 75.7203 81.4296C76.5919 80.558 77.6748 79.3166 78.1238 78.6563C78.5728 77.996 79.2859 76.8075 79.6821 76.0151C80.0783 75.2228 80.5801 73.7173 80.765 72.7136C80.9763 71.71 81.1083 70.8384 81.0819 70.812C81.0291 70.7591 80.7386 71.4194 80.4216 72.2646C80.1047 73.0834 79.2595 74.6681 78.5464 75.751C77.8332 76.8339 76.4862 78.445 75.5618 79.2902C74.6374 80.1618 72.9734 81.456 71.8905 82.1691C70.8077 82.9086 68.906 84.0179 67.6646 84.6254C66.4233 85.2329 64.4688 86.1309 63.3067 86.5799C62.1445 87.0553 59.6618 87.8213 57.7602 88.2967C55.8585 88.7985 52.9532 89.406 51.2892 89.6701C48.8593 90.0399 46.72 90.1455 40.5924 90.1455C33.7253 90.1455 32.5896 90.0663 29.4994 89.5116C27.5977 89.1947 24.6924 88.508 23.0284 88.0326C21.3645 87.5307 18.5648 86.5535 16.8216 85.814C15.0784 85.0744 12.5957 83.8066 11.2751 83.0407C9.9545 82.2483 8.15849 80.9806 7.26048 80.1882C6.36248 79.4223 4.98906 78.0224 4.24952 77.0716C3.48357 76.1208 2.47992 74.5096 1.97809 73.506C1.37062 72.2118 1.1065 71.8684 1.1065 72.3174C1.1065 72.6872 1.39703 73.7701 1.71397 74.7209ZM2.47992 71.5251C2.61198 72.0269 2.95533 72.74 3.19304 73.1098C3.61563 73.7437 3.61563 73.7173 3.77411 71.9213C3.87975 70.8912 4.03822 69.3593 4.14387 68.4877C4.32876 66.9558 4.30234 66.8766 3.50999 66.1106C3.06098 65.6616 2.63839 65.3711 2.58557 65.4503C2.53274 65.5296 2.4271 66.7181 2.34786 68.0915C2.24221 69.5706 2.29504 70.9704 2.47992 71.5251ZM2.6648 61.8847C2.77045 62.3073 3.06098 62.994 3.29869 63.3902C3.5364 63.8128 3.77411 64.1297 3.80052 64.1297C3.85334 64.1297 3.85334 63.1525 3.82693 61.9375C3.82693 60.749 3.77411 59.3756 3.77411 58.9002C3.74769 58.4248 3.48357 57.7645 3.14022 57.3683L2.55915 56.708C2.50633 60.1151 2.55915 61.4357 2.6648 61.8847ZM5.06829 74.6945C5.35882 75.4869 5.80783 76.3849 6.12477 76.6754L6.65301 77.1772C6.65301 74.3512 6.83789 73.3739 7.20766 72.5816C7.49819 71.9213 7.70949 71.1025 7.70949 70.7591C7.70949 70.3894 7.26048 69.7027 6.65301 69.0424C6.07195 68.4613 5.51729 68.0123 5.46447 68.0915C5.38523 68.1708 5.14753 68.9367 4.93623 69.8083C4.72494 70.6799 4.54005 71.8156 4.54005 72.3174C4.56646 72.8193 4.77776 73.9022 5.06829 74.6945ZM5.06829 63.7336C5.14753 64.6052 5.35882 65.556 5.51729 65.8465C5.67577 66.137 6.09836 66.586 6.49454 66.8238C6.8643 67.0879 7.23407 67.2992 7.31331 67.2992C7.39254 67.2992 7.36613 67.1407 7.26048 66.9558C7.18125 66.7973 7.02278 65.3183 6.94354 63.6807C6.78507 60.8547 6.75866 60.6962 5.99271 59.9302C5.57012 59.4548 5.12112 59.1115 4.98906 59.1115C4.88341 59.1115 4.83058 59.7982 4.83058 60.6169C4.857 61.4621 4.96264 62.862 5.06829 63.7336ZM7.81514 78.3922C8.02643 78.762 8.66032 79.3166 9.26779 79.6336C9.87527 79.9769 10.4035 80.2146 10.4563 80.1618C10.5092 80.1354 10.694 79.1846 10.8525 78.0488C11.011 76.8867 11.4336 75.4869 11.8033 74.7473C12.3316 73.7173 12.4108 73.4267 12.1203 73.0042C11.9618 72.74 11.1695 72.1854 10.4035 71.7628C9.66397 71.3402 8.89803 71.0497 8.76597 71.1289C8.63391 71.2081 8.31696 71.8949 8.10567 72.6344C7.89437 73.4003 7.65666 74.853 7.57743 75.8831C7.47178 77.2301 7.55102 77.9168 7.81514 78.3922ZM8.3962 67.2992C8.60749 67.9595 9.03009 68.7782 9.37344 69.0952C9.69038 69.4385 10.2714 69.8875 10.6676 70.0988C11.0902 70.3101 11.4072 70.3894 11.4072 70.2573C11.4072 70.1517 11.3015 69.6498 11.143 69.148C11.011 68.6462 10.8525 67.1935 10.8261 65.9257C10.7469 63.9184 10.6676 63.5751 10.0866 62.9412C9.7168 62.545 9.10932 62.0696 8.68673 61.8583L7.97361 61.4885C8.00002 65.0806 8.1849 66.6389 8.3962 67.2992ZM12.7806 81.6409C13.5465 82.3804 14.2332 82.8294 14.6822 82.8558C15.2897 82.8822 15.369 82.7766 15.369 82.0106C15.369 81.5616 15.501 80.4523 15.6595 79.5807C15.818 78.7091 16.2141 77.4942 16.5839 76.8603C17.0065 76.1472 17.1386 75.6453 16.9801 75.4076C16.848 75.2492 16.0557 74.8002 15.1841 74.4568C14.1012 74.0078 13.5465 73.9022 13.256 74.087C13.0447 74.2455 12.6485 74.9322 12.3844 75.6454C12.1203 76.3585 11.8298 77.7319 11.7505 78.7091L11.592 80.4787L12.7806 81.6409ZM11.9354 67.8274C12.0146 68.7782 12.3316 69.9932 12.6221 70.5743C12.8862 71.1289 13.4145 71.7892 13.7842 72.0533C14.154 72.291 14.8671 72.6344 15.369 72.8193L16.2934 73.1362C15.95 71.7892 15.7387 70.6271 15.6067 69.6762C15.501 68.7254 15.369 67.4312 15.369 66.7709C15.369 65.6088 15.3161 65.556 14.0484 64.8429C13.3088 64.4467 12.4901 64.1297 12.1995 64.1297C11.7505 64.1297 11.6713 64.2882 11.6977 65.107C11.7241 65.6616 11.8298 66.8766 11.9354 67.8274ZM16.848 83.8595C17.1121 83.9915 18.0366 84.3877 18.8553 84.7575C19.7005 85.1008 20.4401 85.3385 20.4665 85.2593C20.5193 85.1801 20.6778 84.0444 20.8098 82.7502C20.9947 81.1919 21.3116 79.8713 21.7606 78.9204L22.4474 77.4678C18.9346 76.0679 18.7497 76.0415 18.1422 76.4113C17.746 76.649 17.3234 77.2829 17.0593 78.0488C16.8216 78.7355 16.5839 80.2674 16.5047 81.456C16.3726 83.3576 16.399 83.6218 16.848 83.8595ZM16.8216 71.393C17.0329 71.9741 17.5611 72.7929 17.9837 73.2419C18.4063 73.6645 19.3572 74.3248 20.0967 74.6945C20.8362 75.0643 21.4965 75.302 21.5494 75.2228C21.6286 75.1435 21.4965 74.4832 21.2852 73.7701C21.0739 73.0306 20.8098 71.3402 20.7042 69.9668C20.5457 67.8274 20.4401 67.4576 19.991 67.2728C19.7005 67.1671 18.8289 66.8238 18.063 66.5332C16.8744 66.0578 16.6631 66.0314 16.5575 66.3748C16.4783 66.586 16.4254 67.5633 16.4254 68.5405C16.4518 69.5178 16.6103 70.812 16.8216 71.393ZM22.2361 85.5234C22.5266 85.814 23.3982 86.2365 24.1377 86.4478C24.9037 86.6856 25.8281 86.844 26.1979 86.7912C26.8317 86.712 26.8582 86.6063 27.0166 84.599C27.1223 83.4369 27.36 82.0106 27.5713 81.4296C27.7826 80.8485 28.1788 80.0297 28.4693 79.6336C28.7334 79.2374 28.9183 78.8676 28.8391 78.8148C28.7598 78.762 27.809 78.5243 26.7261 78.2865C25.6432 78.0488 24.5075 77.864 24.217 77.8375C23.9264 77.8375 23.451 78.1017 23.1605 78.4186C22.87 78.7355 22.4209 79.8977 22.1568 81.007C21.9191 82.1163 21.7078 83.4633 21.7078 83.9915C21.7078 84.6518 21.8927 85.1801 22.2361 85.5234ZM21.9455 71.9213C22.0512 72.6344 22.4209 73.8229 22.7907 74.5625C23.3982 75.8038 23.5038 75.9095 25.0093 76.3321C25.8809 76.5698 27.0166 76.7811 27.5185 76.7811L28.4429 76.7811C27.4656 73.8493 27.2543 72.608 27.2807 71.393C27.2807 69.9668 27.1751 69.4385 26.8317 69.148C26.5676 68.9367 25.4055 68.5405 24.2434 68.3028C23.0548 68.0651 22.0248 67.9066 21.8927 67.9859C21.7871 68.0387 21.7078 68.6462 21.7342 69.3329C21.7606 70.0196 21.8663 71.1817 21.9455 71.9213ZM28.2316 86.8704C28.2844 87.1081 28.707 87.4251 29.1824 87.5836C29.6578 87.742 30.9256 87.9005 32.0085 87.9533L33.9894 88.0326C34.2535 84.7575 34.4648 83.2784 34.6497 82.6181C34.8346 81.9578 35.2043 80.9806 35.4685 80.4259L35.9703 79.4487C32.3783 79.1581 31.1633 79.1053 30.952 79.1317C30.7407 79.1846 30.2389 79.5543 29.8163 79.9769C29.4201 80.4259 28.8655 81.5352 28.5749 82.5389C28.2844 83.5161 28.0467 84.8103 28.0731 85.3914C28.0995 85.9724 28.1523 86.6327 28.2316 86.8704ZM28.5749 72.1854C28.6806 73.189 28.9975 74.5625 29.2616 75.1963C29.5522 75.8302 30.054 76.6226 30.4238 76.9395C30.952 77.3885 31.5859 77.547 33.4611 77.7055C34.7553 77.8111 35.8646 77.864 35.891 77.8111C35.891 77.7583 35.6269 76.8867 35.2836 75.8831C34.8874 74.7209 34.6497 73.4003 34.6497 72.3967C34.6497 71.3138 34.5176 70.6271 34.2535 70.363C34.0422 70.1253 33.5404 69.8875 33.1178 69.8083C32.7216 69.7555 31.5859 69.597 30.5822 69.4914C29.0768 69.3065 28.7334 69.3593 28.5485 69.6762C28.4165 69.8875 28.3372 70.1252 28.3372 70.2045C28.3636 70.2837 28.4693 71.1553 28.5749 72.1854ZM35.6533 88.059C35.759 88.2439 36.7891 88.4023 38.2153 88.4287C39.5095 88.4552 40.698 88.4816 40.8565 88.4552C40.9886 88.4552 41.1999 87.3194 41.3055 85.9724C41.4111 84.4405 41.7281 82.8558 42.1507 81.6937C42.5204 80.6636 42.7846 79.8184 42.7582 79.7656C42.7317 79.7392 41.7017 79.6864 40.4603 79.66C39.1133 79.6336 37.9776 79.7392 37.6078 79.9241C37.2909 80.0826 36.8419 80.5051 36.6306 80.8221C36.4193 81.1654 36.0495 82.354 35.8382 83.4633C35.6269 84.599 35.442 86.0253 35.442 86.6327C35.442 87.2666 35.5213 87.9005 35.6533 88.059ZM35.9703 73.3739C36.0759 74.1663 36.3929 75.3548 36.657 75.9887C36.9211 76.6226 37.4494 77.3885 37.8191 77.6527C38.2945 77.996 38.9284 78.1281 40.0641 78.1281C40.9357 78.1281 41.9922 78.0488 42.4412 77.9696L43.2336 77.8111C42.2563 75.302 41.8866 73.6909 41.8073 72.608C41.6753 71.1289 41.5432 70.6271 41.1734 70.4422C40.9357 70.3101 39.6151 70.2309 38.2681 70.2573L35.8382 70.3365C35.7854 71.5515 35.8382 72.5816 35.9703 73.3739ZM42.7582 88.1382C42.8638 88.4552 43.3392 88.508 44.8975 88.4816C46.0597 88.4552 47.1161 88.2967 47.3538 88.1118C47.6972 87.8477 47.8293 87.1346 47.9349 84.9952C48.0406 83.1463 48.2518 81.7201 48.6216 80.69L49.1763 79.1846C47.0369 79.3958 46.0068 79.5279 45.5314 79.5807C45.0032 79.66 44.4749 79.9769 44.1316 80.4259C43.841 80.8221 43.4449 81.7465 43.2336 82.486C43.0487 83.1992 42.8374 84.7047 42.7582 85.7875C42.7053 86.8704 42.7053 87.9269 42.7582 88.1382ZM43.1279 73.1098C43.26 74.0606 43.4713 75.1699 43.6033 75.6189C43.7618 76.0415 44.1844 76.7018 44.5542 77.0716C45.1616 77.6527 45.4786 77.7319 47.1954 77.7319C48.2518 77.7319 49.2027 77.6791 49.2819 77.5998C49.3876 77.5206 49.2027 76.7282 48.9121 75.8038C48.6216 74.9058 48.3047 73.2947 48.199 72.2382C48.1198 71.1817 47.9349 70.2837 47.8293 70.2045C47.7236 70.1252 46.5879 70.1252 45.2937 70.2045C43.2072 70.3101 42.9695 70.3894 42.9166 70.8648C42.9166 71.1553 42.9959 72.159 43.1279 73.1098ZM49.5989 87.7684C49.863 87.8741 50.6817 87.9005 51.4213 87.7949C52.1344 87.6892 52.8739 87.4779 53.0588 87.293C53.2701 87.0817 53.4286 85.8668 53.4814 83.9387C53.5342 81.9578 53.7191 80.4787 54.0097 79.7128L54.4587 78.5243C52.2929 78.8148 51.3949 79.1317 51.0251 79.3958C50.6553 79.66 50.1535 80.2939 49.8894 80.7957C49.5989 81.4032 49.3876 82.6709 49.2555 84.6254C49.097 87.3458 49.1234 87.5836 49.5989 87.7684ZM49.5989 72.9777C49.6517 73.2683 49.8102 74.087 49.9686 74.8266C50.1007 75.5397 50.4704 76.3849 50.761 76.6754C51.2628 77.1244 51.5269 77.1772 52.9532 77.0188C53.8512 76.9131 54.6171 76.7547 54.6435 76.6754C54.6964 76.5962 54.5379 75.9623 54.3002 75.2756C54.0889 74.5889 53.7984 73.1362 53.6399 72.0533C53.4814 70.6799 53.2437 69.9668 52.9268 69.7291C52.6098 69.4914 52.108 69.4385 51.2892 69.5442C50.6289 69.6498 49.9422 69.8611 49.7573 70.0196C49.5724 70.2045 49.4404 70.812 49.4668 71.393C49.4668 71.9741 49.546 72.6872 49.5989 72.9777ZM54.8812 87.0553C55.0133 87.0817 55.8321 86.9233 56.7037 86.712C57.5753 86.5007 58.394 86.1837 58.5525 86.0253C58.6846 85.8932 58.843 84.5462 58.843 83.0671C58.8695 81.588 59.0279 79.8449 59.2128 79.1846C59.3977 78.5243 59.609 77.8375 59.7146 77.6262C59.8467 77.3093 59.6882 77.2829 58.9487 77.4414C58.4469 77.547 57.5224 77.864 56.8886 78.1545C56.0698 78.5243 55.6472 78.9204 55.3303 79.6336C55.0397 80.2939 54.8548 81.6937 54.7756 83.8331C54.6964 85.6027 54.7492 87.0553 54.8812 87.0553ZM54.9077 72.3174C54.9605 72.6872 55.1718 73.5852 55.3831 74.3512C55.6472 75.302 55.9641 75.8302 56.3603 76.0415C56.8357 76.2528 57.364 76.2264 58.6846 75.8566C59.6354 75.5925 60.4278 75.3812 60.4542 75.3812C60.507 75.3548 60.2957 74.853 60.0052 74.2191C59.7146 73.6116 59.3449 72.608 59.2128 71.9741C59.0807 71.3666 58.9487 70.4422 58.9751 69.9404C58.9751 69.4385 58.8166 68.8575 58.6317 68.6726C58.394 68.4349 57.8922 68.3821 56.9678 68.5141C56.2283 68.6198 55.4359 68.9367 55.1718 69.2008C54.8812 69.4914 54.7228 70.046 54.7492 70.6535C54.7756 71.2081 54.8284 71.9477 54.9077 72.3174ZM59.9259 84.6518L60.0052 85.7875C62.5671 84.9159 63.4651 84.5198 63.65 84.3613C63.8877 84.15 63.9934 83.3048 63.967 81.5616C63.967 80.1882 64.0726 78.445 64.2047 77.7319C64.3367 76.9924 64.5216 76.2 64.6008 75.9359C64.7593 75.5133 64.6801 75.5133 63.4915 75.9095C62.8048 76.1736 61.9597 76.5434 61.6163 76.7811C61.2465 77.0188 60.8239 77.547 60.6391 77.996C60.4542 78.4186 60.2165 79.6071 60.1372 80.6372C60.0316 81.6409 59.9523 82.7238 59.8995 83.0143C59.8731 83.3048 59.8731 84.0444 59.9259 84.6518ZM60.2693 71.6571C60.3749 72.2382 60.6655 73.1626 60.9032 73.6909C61.2465 74.5096 61.4578 74.6945 62.0389 74.6945C62.4615 74.6945 63.4123 74.3776 64.1518 74.0342L65.5517 73.3739C64.865 72.0269 64.4688 70.6535 64.2311 69.4121L63.7821 67.1671C62.1974 67.1935 61.3522 67.3784 60.9296 67.5897C60.2165 67.9331 60.1372 68.0915 60.0844 69.2801C60.058 69.9932 60.1372 71.0761 60.2693 71.6571ZM64.9178 83.0671C64.9706 83.4105 65.2083 83.6746 65.4196 83.6746C65.6309 83.6746 66.0799 83.5425 66.3969 83.3841C66.7402 83.1992 67.2949 82.803 67.6646 82.4596C68.2193 81.9314 68.2985 81.6409 68.2193 80.5844C68.1665 79.8713 68.2721 78.313 68.4306 77.0716C68.5891 75.8302 68.8003 74.536 68.9324 74.1927L69.1173 73.5588C67.4798 74.2455 66.7402 74.7209 66.4233 75.0379C66.1063 75.3548 65.6573 76.3321 65.446 77.2037C65.2347 78.0752 64.997 79.6071 64.9442 80.6372C64.865 81.6409 64.865 82.7502 64.9178 83.0671ZM65.4989 70.3365C65.7366 71.2346 66.1063 72.1854 66.3176 72.4495C66.6082 72.8457 66.8459 72.9249 67.3213 72.7664C67.6382 72.6608 68.4042 72.291 68.9852 71.9213C69.5663 71.5515 70.0417 71.2081 70.0417 71.1289C70.0417 71.0497 69.804 70.5214 69.5135 69.9404C69.2229 69.3593 68.8268 67.9859 68.6419 66.903C68.4834 65.8201 68.1929 64.9221 68.0608 64.9221C67.9023 64.9221 67.2949 65.1598 66.661 65.4503C66.0535 65.7409 65.4196 66.2163 65.2876 66.5068C65.1291 66.7973 65.0234 67.4048 65.0499 67.8802C65.0499 68.3556 65.2611 69.4649 65.4989 70.3365ZM69.4078 81.2183C69.4871 81.4824 69.7776 81.4296 70.57 81.0334C71.151 80.7429 71.7321 80.2674 71.8905 79.9769C72.0226 79.6864 72.1547 78.3394 72.1811 76.9924C72.1811 75.6453 72.2603 73.9286 72.366 73.1626C72.4716 72.3174 72.4452 71.7892 72.2867 71.7892C72.1283 71.7892 71.6 72.2382 71.0982 72.7929C70.57 73.3211 69.9361 74.3512 69.6984 75.0907C69.399 75.9711 69.2582 77.1596 69.2758 78.6563C69.2758 79.8977 69.3286 81.0334 69.4078 81.2183ZM69.9361 68.4877C70.1474 69.0688 70.3851 69.7555 70.4643 69.9932C70.5171 70.2573 70.7284 70.4686 70.8869 70.4686C71.0718 70.4686 71.7321 70.2045 72.3396 69.8611C73.0967 69.4738 73.4753 69.104 73.4753 68.7518C73.4753 68.4613 73.3168 67.6953 73.1055 67.035C72.8942 66.3747 72.5773 65.1598 72.4188 64.3146C72.2867 63.4958 72.0754 62.8091 71.9434 62.8091C71.8377 62.8091 71.2831 63.0733 70.702 63.4166C69.6455 63.9977 69.6455 64.0241 69.5927 65.7145C69.5399 66.7709 69.6719 67.8274 69.9361 68.4877ZM73.1319 78.5771C73.2904 78.8148 73.5809 78.7355 74.3205 78.2601C74.8751 77.8904 75.3769 77.3357 75.4297 76.9924C75.509 76.6754 75.6146 74.8002 75.6939 72.8457L75.8523 69.2801C74.9279 69.9404 74.3205 70.7591 73.9243 71.5515C73.2904 72.74 73.1583 73.4003 73.0527 75.6189C72.9734 77.0716 72.9999 78.3922 73.1319 78.5771ZM73.6866 65.8201C73.9507 66.9294 74.294 67.6953 74.5317 67.7746C74.743 67.8274 75.1656 67.7482 75.4562 67.5897C75.7467 67.4312 76.1957 66.903 76.4598 66.4276C76.856 65.7409 76.9088 65.4503 76.6711 64.9221C76.5126 64.5523 76.1957 63.4166 75.9844 62.413C75.7731 61.3829 75.5882 60.4585 75.5882 60.3528C75.5882 60.2472 75.1392 60.4849 74.5846 60.8811C74.0563 61.2772 73.5281 61.7262 73.4224 61.8847C73.2904 62.0168 73.2111 62.5714 73.2376 63.0733C73.2376 63.5751 73.4489 64.8164 73.6866 65.8201ZM77.1729 75.2756C77.6219 74.8002 78.0709 73.9814 78.2294 73.4267C78.3615 72.8985 78.4935 71.2081 78.4935 69.6762L78.4935 66.903C77.4635 68.3292 77.0409 69.1744 76.9352 69.6762C76.8032 70.1781 76.6183 71.842 76.5391 73.3739L76.407 76.1472L77.1729 75.2756ZM77.305 63.9713C77.5427 64.5259 77.8068 64.9749 77.9125 64.9485C77.9917 64.9485 78.3615 64.658 78.6784 64.3146C79.2595 63.7336 79.2859 63.6279 79.0218 61.7262C78.8633 60.6434 78.7048 59.2171 78.6784 58.5568L78.5992 57.3683C77.1465 59.2963 77.0145 59.7189 76.9616 61.198C76.9088 62.3073 77.0409 63.2845 77.305 63.9713ZM79.5236 71.393C79.6821 71.3138 80.0518 70.5478 80.3424 69.7291C80.6593 68.8839 80.9763 67.2199 81.0819 66.0314C81.1611 64.8164 81.1611 63.8392 81.0555 63.8392C80.9499 63.8392 80.5273 64.5259 80.1575 65.3711C79.6028 66.5596 79.4444 67.4048 79.3651 69.2272C79.2859 70.7591 79.3387 71.4987 79.5236 71.393ZM79.7877 61.5942L79.9726 62.6507C81.0555 60.3 81.1083 59.7718 81.0555 56.9193L80.9763 53.6706C79.6293 56.3646 79.5236 56.8929 79.5764 58.5568C79.5764 59.6661 79.6821 61.0131 79.7877 61.5942Z" fill="#E9C500"/>
<path opacity="0.98" fill-rule="evenodd" clip-rule="evenodd" d="M1.08009 95.6954L1.26497 96.4877C1.5555 95.0615 1.63474 94.0314 1.63474 93.3183C1.63474 92.5787 1.44985 91.76 1.23856 91.4694C0.86879 90.994 0.842378 91.1261 0.86879 92.9221C0.895202 94.005 0.974438 95.2463 1.08009 95.6954ZM1.23856 88.3C1.58191 89.0395 1.58191 88.9867 1.60832 86.9794C1.60832 85.8173 1.5555 84.4174 1.44985 83.8628C1.31779 83.0968 1.23856 82.9648 1.08008 83.3346C0.974437 83.5987 0.868789 84.6552 0.86879 85.6588C0.86879 86.6889 1.02726 87.851 1.23856 88.3ZM1.71397 102.721C2.03092 103.672 2.77045 105.177 3.35151 106.022C3.93258 106.868 5.17394 108.347 6.12477 109.298C7.0756 110.248 8.73955 111.648 9.82245 112.361C10.9053 113.101 12.8598 114.263 14.1804 114.897C15.501 115.557 17.746 116.534 19.1987 117.089C20.6513 117.644 23.1605 118.41 24.7452 118.806C26.3299 119.202 29.0768 119.757 30.82 120.021C33.3291 120.417 35.5213 120.523 41.2527 120.496C47.5651 120.496 48.965 120.417 51.9495 119.915C53.8512 119.598 56.5188 119.017 57.8922 118.647C59.2656 118.278 61.5371 117.538 62.9105 117.036C64.2839 116.508 66.5025 115.557 67.7967 114.897C69.0909 114.263 71.0718 113.101 72.1547 112.388C73.2376 111.648 74.8487 110.328 75.7203 109.43C76.5919 108.558 77.6748 107.317 78.1238 106.656C78.5728 105.996 79.2859 104.807 79.6821 104.015C80.0783 103.223 80.5801 101.717 80.765 100.714C80.9763 99.71 81.1083 98.8384 81.0819 98.812C81.0291 98.7591 80.7386 99.4194 80.4216 100.265C80.1047 101.083 79.2595 102.668 78.5464 103.751C77.8332 104.834 76.4862 106.445 75.5618 107.29C74.6374 108.162 72.9734 109.456 71.8905 110.169C70.8077 110.909 68.906 112.018 67.6646 112.625C66.4233 113.233 64.4688 114.131 63.3067 114.58C62.1445 115.055 59.6618 115.821 57.7602 116.297C55.8585 116.799 52.9532 117.406 51.2892 117.67C48.8593 118.04 46.72 118.146 40.5924 118.146C33.7253 118.146 32.5896 118.066 29.4994 117.512C27.5977 117.195 24.6924 116.508 23.0284 116.033C21.3645 115.531 18.5648 114.553 16.8216 113.814C15.0784 113.074 12.5957 111.807 11.2751 111.041C9.9545 110.248 8.15849 108.981 7.26048 108.188C6.36248 107.422 4.98906 106.022 4.24952 105.072C3.48357 104.121 2.47992 102.51 1.97809 101.506C1.37062 100.212 1.1065 99.8684 1.1065 100.317C1.1065 100.687 1.39703 101.77 1.71397 102.721ZM2.47992 99.5251C2.61198 100.027 2.95533 100.74 3.19304 101.11C3.61563 101.744 3.61563 101.717 3.77411 99.9213C3.87975 98.8912 4.03822 97.3593 4.14387 96.4877C4.32876 94.9558 4.30234 94.8766 3.50999 94.1106C3.06098 93.6616 2.63839 93.3711 2.58557 93.4503C2.53274 93.5296 2.4271 94.7181 2.34786 96.0915C2.24221 97.5706 2.29504 98.9704 2.47992 99.5251ZM2.6648 89.8847C2.77045 90.3073 3.06098 90.994 3.29869 91.3902C3.5364 91.8128 3.77411 92.1297 3.80052 92.1297C3.85334 92.1297 3.85334 91.1525 3.82693 89.9375C3.82693 88.749 3.77411 87.3756 3.77411 86.9002C3.74769 86.4248 3.48357 85.7645 3.14022 85.3683L2.55915 84.708C2.50633 88.1151 2.55915 89.4357 2.6648 89.8847ZM5.06829 102.695C5.35882 103.487 5.80783 104.385 6.12477 104.675L6.65301 105.177C6.65301 102.351 6.83789 101.374 7.20766 100.582C7.49819 99.9213 7.70949 99.1025 7.70949 98.7591C7.70949 98.3894 7.26048 97.7027 6.65301 97.0424C6.07195 96.4613 5.51729 96.0123 5.46447 96.0915C5.38523 96.1708 5.14753 96.9367 4.93623 97.8083C4.72494 98.6799 4.54005 99.8156 4.54005 100.317C4.56646 100.819 4.77776 101.902 5.06829 102.695ZM5.06829 91.7336C5.14753 92.6052 5.35882 93.556 5.51729 93.8465C5.67577 94.137 6.09836 94.586 6.49454 94.8238C6.8643 95.0879 7.23407 95.2992 7.31331 95.2992C7.39254 95.2992 7.36613 95.1407 7.26048 94.9558C7.18125 94.7973 7.02278 93.3183 6.94354 91.6807C6.78507 88.8547 6.75866 88.6962 5.99271 87.9302C5.57012 87.4548 5.12112 87.1115 4.98906 87.1115C4.88341 87.1115 4.83058 87.7982 4.83058 88.6169C4.857 89.4621 4.96264 90.862 5.06829 91.7336ZM7.81514 106.392C8.02643 106.762 8.66032 107.317 9.26779 107.634C9.87527 107.977 10.4035 108.215 10.4563 108.162C10.5092 108.135 10.694 107.185 10.8525 106.049C11.011 104.887 11.4336 103.487 11.8033 102.747C12.3316 101.717 12.4108 101.427 12.1203 101.004C11.9618 100.74 11.1695 100.185 10.4035 99.7628C9.66397 99.3402 8.89803 99.0497 8.76597 99.1289C8.63391 99.2081 8.31696 99.8949 8.10567 100.634C7.89437 101.4 7.65666 102.853 7.57743 103.883C7.47178 105.23 7.55102 105.917 7.81514 106.392ZM8.3962 95.2992C8.60749 95.9595 9.03009 96.7782 9.37344 97.0952C9.69038 97.4385 10.2714 97.8875 10.6676 98.0988C11.0902 98.3101 11.4072 98.3894 11.4072 98.2573C11.4072 98.1517 11.3015 97.6498 11.143 97.148C11.011 96.6462 10.8525 95.1935 10.8261 93.9257C10.7469 91.9184 10.6676 91.5751 10.0866 90.9412C9.7168 90.545 9.10932 90.0696 8.68673 89.8583L7.97361 89.4885C8.00002 93.0806 8.1849 94.6389 8.3962 95.2992ZM12.7806 109.641C13.5465 110.38 14.2332 110.829 14.6822 110.856C15.2897 110.882 15.369 110.777 15.369 110.011C15.369 109.562 15.501 108.452 15.6595 107.581C15.818 106.709 16.2141 105.494 16.5839 104.86C17.0065 104.147 17.1386 103.645 16.9801 103.408C16.848 103.249 16.0557 102.8 15.1841 102.457C14.1012 102.008 13.5465 101.902 13.256 102.087C13.0447 102.246 12.6485 102.932 12.3844 103.645C12.1203 104.358 11.8298 105.732 11.7505 106.709L11.592 108.479L12.7806 109.641ZM11.9354 95.8274C12.0146 96.7782 12.3316 97.9932 12.6221 98.5743C12.8862 99.1289 13.4145 99.7892 13.7842 100.053C14.154 100.291 14.8671 100.634 15.369 100.819L16.2934 101.136C15.95 99.7892 15.7387 98.6271 15.6067 97.6762C15.501 96.7254 15.369 95.4312 15.369 94.7709C15.369 93.6088 15.3161 93.556 14.0484 92.8429C13.3088 92.4467 12.4901 92.1297 12.1995 92.1297C11.7505 92.1297 11.6713 92.2882 11.6977 93.107C11.7241 93.6616 11.8298 94.8766 11.9354 95.8274ZM16.848 111.859C17.1121 111.992 18.0366 112.388 18.8553 112.757C19.7005 113.101 20.4401 113.339 20.4665 113.259C20.5193 113.18 20.6778 112.044 20.8098 110.75C20.9947 109.192 21.3116 107.871 21.7606 106.92L22.4474 105.468C18.9346 104.068 18.7497 104.042 18.1422 104.411C17.746 104.649 17.3234 105.283 17.0593 106.049C16.8216 106.736 16.5839 108.267 16.5047 109.456C16.3726 111.358 16.399 111.622 16.848 111.859ZM16.8216 99.393C17.0329 99.9741 17.5611 100.793 17.9837 101.242C18.4063 101.664 19.3572 102.325 20.0967 102.695C20.8362 103.064 21.4965 103.302 21.5494 103.223C21.6286 103.144 21.4965 102.483 21.2852 101.77C21.0739 101.031 20.8098 99.3402 20.7042 97.9668C20.5457 95.8274 20.4401 95.4576 19.991 95.2728C19.7005 95.1671 18.8289 94.8238 18.063 94.5332C16.8744 94.0578 16.6631 94.0314 16.5575 94.3748C16.4783 94.586 16.4254 95.5633 16.4254 96.5405C16.4518 97.5178 16.6103 98.812 16.8216 99.393ZM22.2361 113.523C22.5266 113.814 23.3982 114.237 24.1377 114.448C24.9037 114.686 25.8281 114.844 26.1979 114.791C26.8317 114.712 26.8582 114.606 27.0166 112.599C27.1223 111.437 27.36 110.011 27.5713 109.43C27.7826 108.849 28.1788 108.03 28.4693 107.634C28.7334 107.237 28.9183 106.868 28.8391 106.815C28.7598 106.762 27.809 106.524 26.7261 106.287C25.6432 106.049 24.5075 105.864 24.217 105.838C23.9264 105.838 23.451 106.102 23.1605 106.419C22.87 106.736 22.4209 107.898 22.1568 109.007C21.9191 110.116 21.7078 111.463 21.7078 111.992C21.7078 112.652 21.8927 113.18 22.2361 113.523ZM21.9455 99.9213C22.0512 100.634 22.4209 101.823 22.7907 102.562C23.3982 103.804 23.5038 103.909 25.0093 104.332C25.8809 104.57 27.0166 104.781 27.5185 104.781L28.4429 104.781C27.4656 101.849 27.2543 100.608 27.2807 99.393C27.2807 97.9668 27.1751 97.4385 26.8317 97.148C26.5676 96.9367 25.4055 96.5405 24.2434 96.3028C23.0548 96.0651 22.0248 95.9066 21.8927 95.9859C21.7871 96.0387 21.7078 96.6462 21.7342 97.3329C21.7606 98.0196 21.8663 99.1817 21.9455 99.9213ZM28.2316 114.87C28.2844 115.108 28.707 115.425 29.1824 115.584C29.6578 115.742 30.9256 115.901 32.0085 115.953L33.9894 116.033C34.2535 112.757 34.4648 111.278 34.6497 110.618C34.8346 109.958 35.2043 108.981 35.4685 108.426L35.9703 107.449C32.3783 107.158 31.1633 107.105 30.952 107.132C30.7407 107.185 30.2389 107.554 29.8163 107.977C29.4201 108.426 28.8655 109.535 28.5749 110.539C28.2844 111.516 28.0467 112.81 28.0731 113.391C28.0995 113.972 28.1523 114.633 28.2316 114.87ZM28.5749 100.185C28.6806 101.189 28.9975 102.562 29.2616 103.196C29.5522 103.83 30.054 104.623 30.4238 104.94C30.952 105.389 31.5859 105.547 33.4611 105.705C34.7553 105.811 35.8646 105.864 35.891 105.811C35.891 105.758 35.6269 104.887 35.2836 103.883C34.8874 102.721 34.6497 101.4 34.6497 100.397C34.6497 99.3138 34.5176 98.6271 34.2535 98.363C34.0422 98.1253 33.5404 97.8875 33.1178 97.8083C32.7216 97.7555 31.5859 97.597 30.5822 97.4914C29.0768 97.3065 28.7334 97.3593 28.5485 97.6762C28.4165 97.8875 28.3372 98.1252 28.3372 98.2045C28.3636 98.2837 28.4693 99.1553 28.5749 100.185ZM35.6533 116.059C35.759 116.244 36.7891 116.402 38.2153 116.429C39.5095 116.455 40.698 116.482 40.8565 116.455C40.9886 116.455 41.1999 115.319 41.3055 113.972C41.4111 112.441 41.7281 110.856 42.1507 109.694C42.5204 108.664 42.7846 107.818 42.7582 107.766C42.7317 107.739 41.7017 107.686 40.4603 107.66C39.1133 107.634 37.9776 107.739 37.6078 107.924C37.2909 108.083 36.8419 108.505 36.6306 108.822C36.4193 109.165 36.0495 110.354 35.8382 111.463C35.6269 112.599 35.442 114.025 35.442 114.633C35.442 115.267 35.5213 115.901 35.6533 116.059ZM35.9703 101.374C36.0759 102.166 36.3929 103.355 36.657 103.989C36.9211 104.623 37.4494 105.389 37.8191 105.653C38.2945 105.996 38.9284 106.128 40.0641 106.128C40.9357 106.128 41.9922 106.049 42.4412 105.97L43.2336 105.811C42.2563 103.302 41.8866 101.691 41.8073 100.608C41.6753 99.1289 41.5432 98.6271 41.1734 98.4422C40.9357 98.3101 39.6151 98.2309 38.2681 98.2573L35.8382 98.3365C35.7854 99.5515 35.8382 100.582 35.9703 101.374ZM42.7582 116.138C42.8638 116.455 43.3392 116.508 44.8975 116.482C46.0597 116.455 47.1161 116.297 47.3538 116.112C47.6972 115.848 47.8293 115.135 47.9349 112.995C48.0406 111.146 48.2518 109.72 48.6216 108.69L49.1763 107.185C47.0369 107.396 46.0068 107.528 45.5314 107.581C45.0032 107.66 44.4749 107.977 44.1316 108.426C43.841 108.822 43.4449 109.747 43.2336 110.486C43.0487 111.199 42.8374 112.705 42.7582 113.788C42.7053 114.87 42.7053 115.927 42.7582 116.138ZM43.1279 101.11C43.26 102.061 43.4713 103.17 43.6033 103.619C43.7618 104.042 44.1844 104.702 44.5542 105.072C45.1616 105.653 45.4786 105.732 47.1954 105.732C48.2518 105.732 49.2027 105.679 49.2819 105.6C49.3876 105.521 49.2027 104.728 48.9121 103.804C48.6216 102.906 48.3047 101.295 48.199 100.238C48.1198 99.1817 47.9349 98.2837 47.8293 98.2045C47.7236 98.1252 46.5879 98.1252 45.2937 98.2045C43.2072 98.3101 42.9695 98.3894 42.9166 98.8648C42.9166 99.1553 42.9959 100.159 43.1279 101.11ZM49.5989 115.768C49.863 115.874 50.6817 115.9 51.4213 115.795C52.1344 115.689 52.8739 115.478 53.0588 115.293C53.2701 115.082 53.4286 113.867 53.4814 111.939C53.5342 109.958 53.7191 108.479 54.0097 107.713L54.4587 106.524C52.2929 106.815 51.3949 107.132 51.0251 107.396C50.6553 107.66 50.1535 108.294 49.8894 108.796C49.5989 109.403 49.3876 110.671 49.2555 112.625C49.097 115.346 49.1234 115.584 49.5989 115.768ZM49.5989 100.978C49.6517 101.268 49.8102 102.087 49.9686 102.827C50.1007 103.54 50.4704 104.385 50.761 104.675C51.2628 105.124 51.5269 105.177 52.9532 105.019C53.8512 104.913 54.6171 104.755 54.6435 104.675C54.6964 104.596 54.5379 103.962 54.3002 103.276C54.0889 102.589 53.7984 101.136 53.6399 100.053C53.4814 98.6799 53.2437 97.9668 52.9268 97.7291C52.6098 97.4914 52.108 97.4385 51.2892 97.5442C50.6289 97.6498 49.9422 97.8611 49.7573 98.0196C49.5724 98.2045 49.4404 98.812 49.4668 99.393C49.4668 99.9741 49.546 100.687 49.5989 100.978ZM54.8812 115.055C55.0133 115.082 55.8321 114.923 56.7037 114.712C57.5753 114.501 58.394 114.184 58.5525 114.025C58.6846 113.893 58.843 112.546 58.843 111.067C58.8695 109.588 59.0279 107.845 59.2128 107.185C59.3977 106.524 59.609 105.838 59.7146 105.626C59.8467 105.309 59.6882 105.283 58.9487 105.441C58.4469 105.547 57.5224 105.864 56.8886 106.154C56.0698 106.524 55.6472 106.92 55.3303 107.634C55.0397 108.294 54.8548 109.694 54.7756 111.833C54.6964 113.603 54.7492 115.055 54.8812 115.055ZM54.9077 100.317C54.9605 100.687 55.1718 101.585 55.3831 102.351C55.6472 103.302 55.9641 103.83 56.3603 104.042C56.8357 104.253 57.364 104.226 58.6846 103.857C59.6354 103.593 60.4278 103.381 60.4542 103.381C60.507 103.355 60.2957 102.853 60.0052 102.219C59.7146 101.612 59.3449 100.608 59.2128 99.9741C59.0807 99.3666 58.9487 98.4422 58.9751 97.9404C58.9751 97.4385 58.8166 96.8575 58.6317 96.6726C58.394 96.4349 57.8922 96.3821 56.9678 96.5141C56.2283 96.6198 55.4359 96.9367 55.1718 97.2008C54.8812 97.4914 54.7228 98.046 54.7492 98.6535C54.7756 99.2081 54.8284 99.9477 54.9077 100.317ZM59.9259 112.652L60.0052 113.788C62.5671 112.916 63.4651 112.52 63.65 112.361C63.8877 112.15 63.9934 111.305 63.967 109.562C63.967 108.188 64.0726 106.445 64.2047 105.732C64.3367 104.992 64.5216 104.2 64.6008 103.936C64.7593 103.513 64.6801 103.513 63.4915 103.909C62.8048 104.174 61.9597 104.543 61.6163 104.781C61.2465 105.019 60.8239 105.547 60.6391 105.996C60.4542 106.419 60.2165 107.607 60.1372 108.637C60.0316 109.641 59.9523 110.724 59.8995 111.014C59.8731 111.305 59.8731 112.044 59.9259 112.652ZM60.2693 99.6571C60.3749 100.238 60.6655 101.163 60.9032 101.691C61.2465 102.51 61.4578 102.695 62.0389 102.695C62.4615 102.695 63.4123 102.378 64.1518 102.034L65.5517 101.374C64.865 100.027 64.4688 98.6535 64.2311 97.4121L63.7821 95.1671C62.1974 95.1935 61.3522 95.3784 60.9296 95.5897C60.2165 95.9331 60.1372 96.0915 60.0844 97.2801C60.058 97.9932 60.1372 99.0761 60.2693 99.6571ZM64.9178 111.067C64.9706 111.41 65.2083 111.675 65.4196 111.675C65.6309 111.675 66.0799 111.543 66.3969 111.384C66.7402 111.199 67.2949 110.803 67.6646 110.46C68.2193 109.931 68.2985 109.641 68.2193 108.584C68.1665 107.871 68.2721 106.313 68.4306 105.072C68.5891 103.83 68.8003 102.536 68.9324 102.193L69.1173 101.559C67.4798 102.246 66.7402 102.721 66.4233 103.038C66.1063 103.355 65.6573 104.332 65.446 105.204C65.2347 106.075 64.997 107.607 64.9442 108.637C64.865 109.641 64.865 110.75 64.9178 111.067ZM65.4989 98.3365C65.7366 99.2346 66.1063 100.185 66.3176 100.45C66.6082 100.846 66.8459 100.925 67.3213 100.766C67.6382 100.661 68.4042 100.291 68.9852 99.9213C69.5663 99.5515 70.0417 99.2081 70.0417 99.1289C70.0417 99.0497 69.804 98.5214 69.5135 97.9404C69.2229 97.3593 68.8268 95.9859 68.6419 94.903C68.4834 93.8201 68.1929 92.9221 68.0608 92.9221C67.9023 92.9221 67.2949 93.1598 66.661 93.4503C66.0535 93.7409 65.4196 94.2163 65.2876 94.5068C65.1291 94.7973 65.0234 95.4048 65.0499 95.8802C65.0499 96.3556 65.2611 97.4649 65.4989 98.3365ZM69.4078 109.218C69.4871 109.482 69.7776 109.43 70.57 109.033C71.151 108.743 71.7321 108.267 71.8905 107.977C72.0226 107.686 72.1547 106.339 72.1811 104.992C72.1811 103.645 72.2603 101.929 72.366 101.163C72.4716 100.317 72.4452 99.7892 72.2867 99.7892C72.1283 99.7892 71.6 100.238 71.0982 100.793C70.57 101.321 69.9361 102.351 69.6984 103.091C69.399 103.971 69.2582 105.16 69.2758 106.656C69.2758 107.898 69.3286 109.033 69.4078 109.218ZM69.9361 96.4877C70.1474 97.0688 70.3851 97.7555 70.4643 97.9932C70.5171 98.2573 70.7284 98.4686 70.8869 98.4686C71.0718 98.4686 71.7321 98.2045 72.3396 97.8611C73.0967 97.4738 73.4753 97.104 73.4753 96.7518C73.4753 96.4613 73.3168 95.6953 73.1055 95.035C72.8942 94.3747 72.5773 93.1598 72.4188 92.3146C72.2867 91.4958 72.0754 90.8091 71.9434 90.8091C71.8377 90.8091 71.2831 91.0733 70.702 91.4166C69.6455 91.9977 69.6455 92.0241 69.5927 93.7145C69.5399 94.7709 69.6719 95.8274 69.9361 96.4877ZM73.1319 106.577C73.2904 106.815 73.5809 106.736 74.3205 106.26C74.8751 105.89 75.3769 105.336 75.4297 104.992C75.509 104.675 75.6146 102.8 75.6939 100.846L75.8523 97.2801C74.9279 97.9404 74.3205 98.7591 73.9243 99.5515C73.2904 100.74 73.1583 101.4 73.0527 103.619C72.9734 105.072 72.9999 106.392 73.1319 106.577ZM73.6866 93.8201C73.9507 94.9294 74.294 95.6953 74.5317 95.7746C74.743 95.8274 75.1656 95.7482 75.4562 95.5897C75.7467 95.4312 76.1957 94.903 76.4598 94.4276C76.856 93.7409 76.9088 93.4503 76.6711 92.9221C76.5126 92.5523 76.1957 91.4166 75.9844 90.413C75.7731 89.3829 75.5882 88.4585 75.5882 88.3528C75.5882 88.2472 75.1392 88.4849 74.5846 88.8811C74.0563 89.2772 73.5281 89.7262 73.4224 89.8847C73.2904 90.0168 73.2111 90.5714 73.2376 91.0733C73.2376 91.5751 73.4489 92.8164 73.6866 93.8201ZM77.1729 103.276C77.6219 102.8 78.0709 101.981 78.2294 101.427C78.3615 100.899 78.4935 99.2081 78.4935 97.6762L78.4935 94.903C77.4635 96.3292 77.0409 97.1744 76.9352 97.6762C76.8032 98.1781 76.6183 99.842 76.5391 101.374L76.407 104.147L77.1729 103.276ZM77.305 91.9713C77.5427 92.5259 77.8068 92.9749 77.9125 92.9485C77.9917 92.9485 78.3615 92.658 78.6784 92.3146C79.2595 91.7336 79.2859 91.6279 79.0218 89.7262C78.8633 88.6434 78.7048 87.2171 78.6784 86.5568L78.5992 85.3683C77.1465 87.2963 77.0145 87.7189 76.9616 89.198C76.9088 90.3073 77.0409 91.2845 77.305 91.9713ZM79.5236 99.393C79.6821 99.3138 80.0518 98.5478 80.3424 97.7291C80.6593 96.8839 80.9763 95.2199 81.0819 94.0314C81.1611 92.8164 81.1611 91.8392 81.0555 91.8392C80.9499 91.8392 80.5273 92.5259 80.1575 93.3711C79.6028 94.5596 79.4444 95.4048 79.3651 97.2272C79.2859 98.7591 79.3387 99.4987 79.5236 99.393ZM79.7877 89.5942L79.9726 90.6507C81.0555 88.3 81.1083 87.7718 81.0555 84.9193L80.9763 81.6706C79.6293 84.3646 79.5236 84.8929 79.5764 86.5568C79.5764 87.6661 79.6821 89.0131 79.7877 89.5942Z" fill="#E9C500"/>
</svg>
