<svg width="114" height="77" viewBox="0 0 114 77" fill="none" xmlns="http://www.w3.org/2000/svg">
<g filter="url(#filter0_d_109_2)">
<path fill-rule="evenodd" clip-rule="evenodd" d="M55.8017 0.889202C58.2931 0.838285 62.5133 1.04195 65.1065 1.29654C67.6488 1.60204 71.564 2.16213 73.6995 2.62039C75.8859 3.02773 79.9535 4.14791 82.7501 5.06442C85.5466 6.03184 89.5635 7.61028 91.6482 8.67954C93.7328 9.7488 96.7836 11.48 98.4107 12.5493C99.9869 13.6694 102.428 15.8589 103.75 17.4882C105.072 19.0667 106.953 21.9689 107.919 23.9547C109.546 27.2134 109.699 27.8753 109.699 32.1015C109.699 35.9203 109.495 37.0914 108.478 39.2299C107.766 40.6556 105.733 43.3033 103.902 45.1363C102.072 46.9693 98.9191 49.5661 96.987 50.839C95.0548 52.112 91.5973 53.8941 89.3601 54.7597C87.1228 55.6762 83.2077 56.8473 80.7162 57.3564C78.2248 57.8656 73.4961 58.4257 64.4455 58.833L68.7674 57.9165C71.1572 57.4073 74.0554 56.6945 75.2757 56.389C76.5469 56.0326 77.3096 55.5234 77.2079 55.167C77.1062 54.8106 74.6147 49.3115 71.7673 42.8959C68.8691 36.5313 66.3776 31.4905 66.2251 31.6432C66.0726 31.796 64.3438 38.0588 58.7507 59.0876L55.0898 59.2404C53.1068 59.2913 51.4797 59.1895 51.4797 58.9858C51.4289 58.7312 53.9204 49.6679 62.4117 19.0667L68.7674 19.3722L72.6317 27.5189C74.7673 31.9996 77.0553 36.9386 77.7672 38.4661C78.6824 40.5537 79.0892 41.0629 79.3942 40.5028C79.6485 40.0955 81.5298 33.5781 83.5636 26.0932C86.8178 14.3823 87.2245 12.3965 86.5635 11.9892C86.1568 11.6837 83.7162 10.6653 81.2247 9.69789C78.7332 8.73046 74.9198 7.50844 72.8351 6.94836C70.7504 6.38827 66.8353 5.52267 64.1913 5.06442C60.8863 4.45341 56.5644 4.19882 50.4628 4.19882C43.0393 4.19882 40.7004 4.35158 36.4801 5.319C33.6836 5.98093 29.4634 7.25386 27.0736 8.22129C24.6838 9.18871 21.2772 10.869 19.4467 11.9382C17.6162 13.0584 14.5655 15.4006 12.6333 17.1318C10.7012 18.9139 8.4131 21.4598 7.54872 22.7836C6.68433 24.1584 5.92164 25.1258 5.81995 24.9731C5.7691 24.8203 6.48095 23.2928 7.34533 21.5616C8.26056 19.8304 10.2944 17.1318 11.8198 15.6043C13.3452 14.0259 16.3451 11.6837 18.4298 10.3598C20.5145 9.03596 24.0737 7.25386 26.3109 6.38827C28.5482 5.52267 32.565 4.24974 35.209 3.58782C37.853 2.92589 41.8698 2.11122 44.1071 1.85663C46.3443 1.55113 48.8357 1.24562 49.7001 1.14379C50.5645 1.04195 53.3102 0.889202 55.8017 0.889202V0.889202ZM88.394 36.9386C86.3093 45.1872 84.6822 52.0101 84.7839 52.112C84.9365 52.1629 85.9025 51.7555 86.9703 51.2464C87.9872 50.6863 90.0211 49.2606 91.4956 48.0386C92.9193 46.8166 95.004 44.729 96.1226 43.3033C97.2412 41.9285 98.6649 39.6372 99.3259 38.2115C100.139 36.3785 100.445 34.6473 100.495 32.1015C100.495 29.1483 100.241 27.9772 98.97 25.2276C98.1056 23.3946 96.6819 21.0524 95.8175 20.0341C94.9023 18.9648 93.9871 18.0992 93.682 18.0992C93.4278 18.0992 92.9702 18.9648 92.7159 20.0341C92.4617 21.0524 90.4787 28.69 88.394 36.9386V36.9386Z" fill="#E9C500"/>
<path fill-rule="evenodd" clip-rule="evenodd" d="M53.2598 10.0547L48.4295 10.7675C45.7855 11.1749 42.1754 11.9386 37.1925 13.2625L33.6841 27.2647C31.3452 36.7353 30.1757 42.2853 30.1757 44.4747C30.1249 47.2243 30.3283 47.8353 31.5486 49.2101C32.718 50.5848 33.3282 50.8394 35.9722 51.094C38.8704 51.2977 39.1246 51.2467 41.0059 49.6174C42.0737 48.65 43.4465 46.9697 43.955 45.8495C44.5143 44.7293 46.2939 38.4156 50.8192 19.8817L54.4293 19.7799C57.6834 19.6271 58.0902 19.729 57.836 20.5436C57.7343 21.0019 56.4631 26.1955 55.0903 32.1019C53.7175 38.0083 52.0904 44.2711 51.4802 46.1041C50.8701 47.9371 49.8531 50.3302 49.243 51.4504C48.582 52.5706 47.1583 54.2509 46.0905 55.1674C44.9719 56.0839 42.6839 57.255 40.8025 57.866C38.9721 58.3752 36.5823 58.8334 35.4637 58.8334C34.1926 58.8334 33.6332 58.9862 33.9383 59.2917C34.2434 59.5463 36.0739 60.31 38.006 61.0229C39.9382 61.7357 44.2092 62.805 47.4125 63.4669C51.9887 64.3325 54.9886 64.5871 61.3952 64.5871C65.8697 64.5871 71.361 64.3325 73.5983 63.9761C75.8355 63.6196 79.7506 62.805 82.2421 62.143C84.7336 61.532 88.2928 60.31 90.1233 59.4953C91.9537 58.6807 95.157 56.8986 97.2417 55.5238C99.3264 54.1999 102.123 52.0105 103.394 50.7376C104.665 49.4646 106.445 47.1224 107.309 45.5949C108.224 44.0674 108.936 43.1 108.936 43.4564C108.936 43.7619 107.716 45.8495 106.292 47.988C104.818 50.1266 102.326 52.9779 100.801 54.2509C99.2755 55.5238 96.3773 57.5096 94.4452 58.6807C92.513 59.8518 88.9538 61.5829 86.564 62.6013C84.1743 63.5687 80.1574 64.9435 77.666 65.6054C75.1745 66.3182 70.8017 67.1329 68.0052 67.4893C64.6494 67.9476 60.0732 68.0494 54.531 67.8458C48.5312 67.6421 44.4126 67.1838 40.0399 66.2673C36.684 65.5545 32.2096 64.3834 30.1249 63.6196C28.0402 62.9068 24.9386 61.5829 23.2606 60.7683C21.5827 59.9027 18.837 58.2733 17.1591 57.0513C15.4812 55.8802 12.7355 53.4362 11.0576 51.6541C9.37966 49.8211 7.34582 46.9697 6.48144 45.3403C5.10859 42.5399 4.95605 41.8271 4.95605 37.1936C4.95605 32.5601 5.10859 31.8473 6.43059 29.3014C7.24413 27.7739 9.17628 25.1262 10.7525 23.4968C12.3287 21.8675 15.0744 19.5253 16.9049 18.3542C18.7353 17.1322 21.6336 15.6047 23.4132 14.8409C25.142 14.1281 28.9046 12.957 31.8028 12.2441C34.6502 11.5313 38.7179 10.7675 40.8025 10.5129C42.8872 10.3093 46.5482 10.0547 53.2598 10.0547V10.0547ZM20.5658 23.3441C18.9896 24.8716 17.21 27.3666 16.2439 29.3014C14.8202 32.1528 14.6168 33.1202 14.6168 36.6844C14.6168 40.2486 14.8202 41.216 16.2439 44.0674C17.21 46.0532 19.0404 48.4972 20.7183 50.1775C23.0573 52.4688 23.464 52.7233 23.0573 51.6032C22.7522 50.7885 22.3963 48.7518 22.2437 47.0206C21.9895 44.322 22.3963 41.8271 24.9386 30.8289C26.6165 23.7005 27.9385 17.845 27.8876 17.7941C27.7859 17.7432 26.769 18.3542 25.4979 19.2198C24.2776 20.0345 22.0403 21.9184 20.5658 23.3441V23.3441Z" fill="white"/>
<path d="M52.5478 19.7285C51.3275 19.8304 50.4632 19.7285 50.6665 19.5249C50.8699 19.2703 52.1919 19.1685 53.6665 19.1685C55.141 19.2194 55.9545 19.3212 55.5478 19.423C55.141 19.474 53.7681 19.6267 52.5478 19.7285Z" fill="white" fill-opacity="0.75"/>
<path d="M4.54913 37.9569C4.39659 38.7207 4.34575 38.4152 4.34575 37.1932C4.2949 36.073 4.39659 35.5129 4.54913 35.9202C4.65082 36.3276 4.65082 37.2441 4.54913 37.9569Z" fill="white" fill-opacity="0.75"/>
<path d="M63.1747 64.7903C62.4628 64.8922 61.09 64.8922 60.1239 64.7903C59.1578 64.6885 59.7171 64.5866 61.3951 64.5866C63.073 64.5866 63.8865 64.6885 63.1747 64.7903Z" fill="white" fill-opacity="0.75"/>
<path d="M59.3104 68.3545C58.7511 68.4564 57.5816 68.4564 56.7681 68.3545C55.9545 68.2527 56.4121 68.1509 57.8358 68.1509C59.2087 68.1509 59.9205 68.2527 59.3104 68.3545Z" fill="white" fill-opacity="0.75"/>
<path d="M54.0225 4.19892C53.6157 4.30076 52.8022 4.30076 52.2428 4.19892C51.6835 4.04617 52.0395 3.94434 53.0055 3.94434C53.9716 3.94434 54.4292 4.04617 54.0225 4.19892Z" fill="#F0E400" fill-opacity="0.75"/>
<path d="M67.2424 18.9649C66.2764 19.0668 64.8018 19.0668 63.9374 18.9649C63.0731 18.8631 63.8866 18.7613 65.7171 18.7613C67.5475 18.7613 68.2085 18.8631 67.2424 18.9649Z" fill="#F0E400" fill-opacity="0.75"/>
<path d="M65.1069 59.1896C64.6493 59.2914 63.7341 59.2914 63.0731 59.1896C62.4121 59.0877 62.8188 58.9859 63.9374 58.9859C65.0561 58.935 65.5645 59.0368 65.1069 59.1896Z" fill="#F0E400" fill-opacity="0.75"/>
<path d="M51.226 9.79986C50.1073 9.90169 48.5311 9.90169 47.6667 9.79986C46.8023 9.69803 47.7684 9.59619 49.7006 9.59619C51.6327 9.59619 52.3446 9.69803 51.226 9.79986Z" fill="white" fill-opacity="0.25"/>
<path d="M102.072 47.377L103.546 45.7477C104.36 44.8311 105.123 44.0674 105.224 44.0674C105.326 44.0674 105.377 44.1183 105.377 44.2201C105.377 44.2711 104.665 44.9839 102.072 47.377Z" fill="#F0E400" fill-opacity="0.63"/>
<path d="M58.0897 0.634821C57.1236 0.736656 55.6491 0.736656 54.7847 0.634821C53.9203 0.532987 54.7339 0.431152 56.5643 0.431152C58.3948 0.431152 59.0558 0.532987 58.0897 0.634821Z" fill="#F0E400" fill-opacity="0.25"/>
<path d="M101.055 54.5054L102.53 52.8761C103.343 51.9596 104.106 51.1958 104.208 51.1958C104.309 51.1958 104.36 51.2467 104.36 51.3486C104.36 51.3995 103.648 52.1123 101.055 54.5054Z" fill="white" fill-opacity="0.38"/>
<path d="M20.0573 50.432C19.142 49.5664 18.4302 48.8536 18.4302 48.8027C18.4302 48.7008 18.5827 48.6499 18.7353 48.6499C18.9386 48.6499 19.6505 49.4137 21.7352 51.9595L20.0573 50.432Z" fill="white" fill-opacity="0.94"/>
<path d="M22.345 46.6131C22.2433 47.326 22.1416 46.8677 22.1416 45.5948C22.1416 44.3219 22.2433 43.7618 22.345 44.3219C22.4467 44.8819 22.4467 45.9003 22.345 46.6131Z" fill="white" fill-opacity="0.25"/>
<path d="M20.5656 50.432C19.6503 49.5664 18.9385 48.8536 18.9385 48.8027C18.9385 48.7008 19.091 48.6499 19.2436 48.6499C19.4469 48.6499 20.1588 49.4137 22.2435 51.9595L20.5656 50.432Z" fill="white" fill-opacity="0.19"/>
</g>
<defs>
<filter id="filter0_d_109_2" x="0.33252" y="0.431152" width="113.366" height="75.9995" filterUnits="userSpaceOnUse" color-interpolation-filters="sRGB">
<feFlood flood-opacity="0" result="BackgroundImageFix"/>
<feColorMatrix in="SourceAlpha" type="matrix" values="0 0 0 0 0 0 0 0 0 0 0 0 0 0 0 0 0 0 127 0" result="hardAlpha"/>
<feOffset dy="4"/>
<feGaussianBlur stdDeviation="2"/>
<feComposite in2="hardAlpha" operator="out"/>
<feColorMatrix type="matrix" values="0 0 0 0 0 0 0 0 0 0 0 0 0 0 0 0 0 0 1 0"/>
<feBlend mode="normal" in2="BackgroundImageFix" result="effect1_dropShadow_109_2"/>
<feBlend mode="normal" in="SourceGraphic" in2="effect1_dropShadow_109_2" result="shape"/>
</filter>
</defs>
</svg>
