<svg width="18" height="18" viewBox="0 0 18 18" fill="none" xmlns="http://www.w3.org/2000/svg">
<path d="M12.5254 11.0127H11.7354L11.4554 10.7427C12.4354 9.60269 13.0254 8.1227 13.0254 6.5127C13.0254 4.78879 12.3406 3.13549 11.1216 1.9165C9.9026 0.697515 8.2493 0.0126953 6.52539 0.0126953C4.80148 0.0126953 3.14818 0.697515 1.9292 1.9165C0.71021 3.13549 0.0253906 4.78879 0.0253906 6.5127C0.0253906 8.2366 0.71021 9.8899 1.9292 11.1089C3.14818 12.3279 4.80148 13.0127 6.52539 13.0127C8.13539 13.0127 9.61539 12.4227 10.7554 11.4427L11.0254 11.7227V12.5127L16.0254 17.5127L17.5254 16.0127L12.5254 11.0127ZM6.52539 11.0127C4.02539 11.0127 2.02539 9.0127 2.02539 6.5127C2.02539 4.0127 4.02539 2.0127 6.52539 2.0127C9.02539 2.0127 11.0254 4.0127 11.0254 6.5127C11.0254 9.0127 9.02539 11.0127 6.52539 11.0127Z" fill="white"/>
</svg>
