<svg width="54" height="67" viewBox="0 0 54 67" fill="none" xmlns="http://www.w3.org/2000/svg">
<path d="M33.5996 0.5H7.19961C3.56961 0.5 0.63261 3.47 0.63261 7.1L0.599609 59.9C0.599609 63.53 3.53661 66.5 7.16661 66.5H46.7996C50.4296 66.5 53.3996 63.53 53.3996 59.9V20.3L33.5996 0.5ZM36.8996 33.5H23.6996V36.8H33.5996C35.4146 36.8 36.8996 38.285 36.8996 40.1V50C36.8996 51.815 35.4146 53.3 33.5996 53.3H30.2996V56.6H23.6996V53.3H17.0996V46.7H30.2996V43.4H20.3996C18.5846 43.4 17.0996 41.915 17.0996 40.1V30.2C17.0996 28.385 18.5846 26.9 20.3996 26.9H23.6996V23.6H30.2996V26.9H36.8996V33.5ZM30.2996 20.3V5.45L45.1496 20.3H30.2996Z" fill="#E9C500"/>
</svg>
